<?xml version="1.0" encoding="utf-8"?>
<!-- Generator: Adobe Illustrator 21.0.0, SVG Export Plug-In . SVG Version: 6.00 Build 0)  -->
<svg version="1.1" id="Layer_1" xmlns="http://www.w3.org/2000/svg" xmlns:xlink="http://www.w3.org/1999/xlink" x="0px" y="0px"
	 viewBox="0 0 97 28" style="enable-background:new 0 0 97 28;" xml:space="preserve">
<style type="text/css">
	.st0{fill:#00A6ED;}
</style>
<title>97x28 a</title>
<g>
	<path class="st0" d="M92.8,17.4c-0.3,0-0.5,0-0.8,0.1L90.9,14c-0.1-0.2-0.2-0.3-0.4-0.4c0,0,0-0.1,0-0.1c0.1-0.1,0.1,0,0.4-0.1
		c0.3-0.1-0.3-0.8-0.7-1c-0.4-0.2-3.1,0-3.5-0.4c-0.6-0.5-1.1-1.2-1.4-1.9c-0.4-0.5-0.7-1.2-0.8-1.8c0.1-0.1,0.1-0.2,0.2-0.2
		c0.3,0.2,0.7,0.3,1,0.4c0.5,0.2,0.6,0.2,0.8-0.1s0.4-0.7,0.6-1.1c0,0,0.4-0.1,0.4-0.3c0-0.2-0.4-0.5-0.4-0.5c0-0.2,0-0.4,0-0.6
		s0.1-0.4,0.3-0.6C87.6,5.2,87.9,5,88.2,5c0.2,0,0.4-0.1,0.6-0.1c0,0,0.2-0.1-0.7-0.2c-0.9-0.1-0.7-0.2-0.9-0.6
		c-0.2-0.3-0.4-0.6-0.6-0.9c-0.9-0.2-1.8,0-2.6,0.5c-1.4,0.9-1.1,1.4-1.1,1.6s0.3,0.4,0.4,0.4c0.1,0,0.2,0.5,0.3,0.7
		c0.1,0.2,0,0.4-0.2,0.8c-0.2,0.4-0.1,0.1-1.5,1c-1.1,0.7-2.2,2.5-2.7,3.3v-0.8c0-0.4-0.2-0.8-0.6-1l-3.2,3.5c-1-1.2-2-2.4-2.9-3.6
		c-0.6,0-1.1,0.5-1.2,1v5.2c0,0.6,0.5,1.1,1.1,1.1H75c0,0,2.7,0.1,4.7,0.1L79,17.9c-0.6-0.3-1.3-0.5-2-0.5c-1.1,0-2.2,0.5-3,1.3
		s-1.2,1.9-1.2,3c0,0.2,0,0.4,0.1,0.6h-3.2c-0.2,0-0.3,0.1-0.3,0.3s0.1,0.3,0.3,0.3H73c0.1,0.2,0.1,0.3,0.2,0.5h-2.5
		c-0.2,0-0.3,0.1-0.3,0.3c0,0.2,0.1,0.3,0.3,0.3h2.8c0.8,1.1,2.1,1.9,3.6,1.9c2.3,0,4.2-2,4.2-4.3c0-1.2-0.5-2.3-1.4-3l1.1-1.5
		c0.4,0,0.6,0,0.7,0c0.6-0.1,2.7,0.6,2.8,1c-0.2,1-0.6,2-1.4,2.6c-0.4,0.3-0.7,0.6-0.4,1.1s2.9,1.3,2.9,1c0-0.3-1-1.1-1-1.5
		c0-0.4,1.9-3.9,1.8-4.5c-0.3-0.9-1.2-1.6-2.2-1.7c-1.4-0.3-2.7-0.9-2.6-1.5c0.3-0.8,0.7-1.6,1.1-2.4c0.8,1,1.6,1.8,2.5,2.5
		c1.1,0.3,2.1,0.3,3.2,0.2c0,0-0.7,1.7,1,1.4c0.2,0,0.3-0.1,0.5-0.1l0.9,2.8c-0.4,0.2-0.8,0.5-1.2,0.9c-0.8,0.8-1.2,1.9-1.2,3
		c0,0.6,0.1,1.2,0.4,1.7h-1.2c-0.2,0-0.3,0.1-0.3,0.3s0.1,0.3,0.3,0.3h1.5c0.1,0.2,0.3,0.3,0.4,0.5h-1.3c-0.2,0-0.3,0.1-0.3,0.3
		s0.1,0.3,0.3,0.3h2c0.7,0.5,1.6,0.8,2.5,0.8c2.3,0,4.3-2.1,4.3-4.4S95.2,17.4,92.8,17.4z M80.1,21.7c0,0.8-0.3,1.6-0.9,2.2
		c-1.2,1.2-3.2,1.2-4.4,0c-0.1-0.1-0.2-0.2-0.2-0.3c0-0.1-0.1-0.1-0.1-0.2c-0.8-1.2-0.7-2.9,0.4-3.9c0.9-0.9,2.3-1.1,3.5-0.6
		l-2.1,2.8c-0.2,0.3-0.1,0.6,0.2,0.8c0.2,0.2,0.6,0.1,0.7-0.1l2.1-2.9C79.8,20.1,80.1,20.9,80.1,21.7z M94.9,23.9
		c-1.2,1.2-3.2,1.2-4.4,0s-1.2-3.2,0-4.4c0.2-0.2,0.5-0.4,0.7-0.5l1,2.9c0.1,0.3,0.4,0.5,0.7,0.5c0.3-0.1,0.5-0.4,0.5-0.7v-0.1l-1-3
		c0.9-0.1,1.8,0.2,2.5,0.9c0.6,0.6,1,1.4,0.9,2.2C95.8,22.5,95.5,23.3,94.9,23.9z"/>
	<path class="st0" d="M75.5,12.7c1.3-1.4,3.3-3.9,3.8-5.6c0.1-0.4,0.2-0.7,0.1-1.1c0-2.2-1.7-3.9-3.9-3.9S71.6,3.9,71.6,6
		c0,0.4,0.1,0.7,0.1,1.1C72.2,8.8,74.2,11.3,75.5,12.7z M75.5,3.3c1.4,0,2.6,1.2,2.6,2.6c0,1.4-1.1,2.6-2.6,2.6s-2.6-1.2-2.6-2.6
		C72.9,4.5,74.1,3.3,75.5,3.3z"/>
	<path class="st0" d="M20.3,13.4c0-0.3-0.2-0.6-0.4-0.9c-0.2-0.3-0.5-0.6-0.9-0.7c-1.5-0.7-3.2-0.2-4.1,1.1v-1.2h-2.1v8.4H15v-3.8
		c0-0.7,0.1-1.3,0.3-2c0.1-0.3,0.3-0.6,0.6-0.8c0.3-0.2,0.6-0.3,1-0.3c0.3,0,0.6,0,0.8,0.2c0.2,0.1,0.4,0.3,0.5,0.6
		c0.1,0.6,0.1,1.2,0.1,1.8v4.3h2.2l-0.1-5.2C20.4,14.4,20.4,13.9,20.3,13.4z"/>
	<path class="st0" d="M4.5,8.5L0,20.1h2.4l1-2.6h4.7l1,2.6h2.5L7,8.5H4.5z M4.1,15.5l1.6-4.3l1.6,4.3H4.1z"/>
	<path class="st0" d="M25.6,18.5c-0.2,0-0.3,0-0.4-0.1c-0.1-0.1-0.2-0.2-0.2-0.3c0-0.4,0-0.8,0-1.2v-3.4h1.5v-1.8H25v-3L22.8,10v1.6
		h-1v1.8h1v3.7c0,0.6,0,1.1,0.1,1.6c0,0.3,0.1,0.6,0.3,0.9c0.2,0.2,0.4,0.4,0.7,0.5c0.4,0.1,0.7,0.2,1.1,0.2c0.6,0,1.2-0.1,1.8-0.3
		l-0.3-1.7C26.2,18.4,25.9,18.5,25.6,18.5z"/>
	<polygon class="st0" points="55,10.6 57.2,10.7 57.2,8.6 55,8.6 	"/>
	<path class="st0" d="M55.2,20.4c0,0.4,0,0.8-0.1,1.2c-0.1,0.2-0.2,0.3-0.3,0.4c-0.2,0.1-0.4,0.1-0.6,0.1h-0.3h-0.3L53.2,24
		c0.2,0.1,0.5,0.2,0.8,0.2c0.2,0.1,0.5,0.1,0.7,0.1c0.5,0,1-0.1,1.5-0.4c0.4-0.2,0.7-0.6,0.8-1c0.1-0.7,0.2-1.4,0.2-2.2v-9l-2-0.1
		V20.4z"/>
	<path class="st0" d="M66.4,17.4v-2.6c0-0.7-0.1-1.4-0.3-2c-0.2-0.4-0.6-0.7-1-0.9c-0.7-0.3-1.4-0.4-2.2-0.4c-0.9,0-1.8,0.2-2.5,0.6
		c-0.6,0.4-1,1.1-1.2,1.8l2,0.4c0.1-0.4,0.3-0.6,0.7-0.9c0.3-0.1,0.6-0.2,0.9-0.2c0.4,0,0.8,0.1,1.2,0.3c0.2,0.2,0.3,0.6,0.3,0.9
		v0.2c-0.7,0.2-1.5,0.4-2.2,0.5c-0.6,0.1-1.2,0.3-1.8,0.5c-0.4,0.2-0.8,0.5-1,0.9c-0.2,0.4-0.3,0.9-0.3,1.3c0,0.7,0.3,1.4,0.8,1.8
		c0.6,0.5,1.3,0.7,2,0.7c0.5,0,1-0.1,1.4-0.3c0.4-0.2,0.9-0.4,1.2-0.8c0,0.1,0.1,0.2,0.1,0.3c0.1,0.2,0.1,0.5,0.2,0.6h2.2
		c-0.2-0.3-0.3-0.7-0.4-1.1C66.4,18.5,66.4,17.9,66.4,17.4z M64.2,17.6c-0.1,0.3-0.2,0.5-0.5,0.7c-0.4,0.3-0.8,0.4-1.2,0.4
		c-0.3,0.1-0.7-0.1-0.9-0.3c-0.2-0.2-0.3-0.5-0.3-0.8s0.1-0.6,0.4-0.8c0.4-0.2,0.8-0.3,1.2-0.4c0.4-0.1,0.9-0.2,1.3-0.3l0.1,0.4
		C64.3,16.9,64.3,17.2,64.2,17.6z"/>
	<path class="st0" d="M41,11.5c-0.4,0-0.7,0.1-1,0.3c-0.4,0.3-0.8,0.7-1,1.1v-1.2h-2v8.4h2.2l0.1-2.7c0-0.9,0-1.9,0.2-2.8
		c0.1-0.3,0.2-0.6,0.5-0.9c0.2-0.2,0.5-0.3,0.8-0.3c0.4,0.1,0.7,0.2,1,0.4l0.7-1.9C42,11.6,41.5,11.5,41,11.5z"/>
	<path class="st0" d="M35,17.4v-2.6c0-0.7-0.1-1.4-0.3-2c-0.2-0.4-0.6-0.7-1-0.9c-0.7-0.3-1.4-0.4-2.2-0.4c-0.9,0-1.8,0.2-2.5,0.6
		c-0.6,0.4-1,1.1-1.2,1.8l2,0.4c0.1-0.4,0.3-0.7,0.7-0.9c0.2-0.1,0.6-0.2,0.9-0.2c0.4,0,0.8,0.1,1.2,0.3c0.2,0.2,0.3,0.6,0.3,0.9
		v0.2c-0.6,0.2-1.4,0.4-2.1,0.5c-0.6,0.1-1.2,0.3-1.8,0.5c-0.4,0.2-0.8,0.5-1,0.9c-0.2,0.4-0.3,0.9-0.3,1.3
		c-0.1,0.7,0.2,1.3,0.7,1.8c0.6,0.5,1.3,0.7,2,0.7c0.5,0,1-0.1,1.4-0.3c0.4-0.2,0.8-0.5,1.2-0.8c0,0.1,0.1,0.2,0.1,0.3
		c0.1,0.2,0.1,0.5,0.2,0.6h2.2c-0.2-0.3-0.3-0.7-0.4-1.1C35,18.5,35,17.9,35,17.4z M32.8,16.5c0,0.4,0,0.7-0.1,1.1
		c-0.1,0.3-0.2,0.5-0.5,0.7c-0.3,0.3-0.7,0.4-1.1,0.4c-0.3,0.1-0.7-0.1-0.9-0.3c-0.3-0.2-0.4-0.5-0.4-0.8s0.1-0.6,0.4-0.8
		c0.4-0.2,0.8-0.3,1.2-0.4c0.5-0.1,1-0.2,1.4-0.3V16.5z"/>
	<path class="st0" d="M49.3,8.5h-2.5l-4.5,11.6h2.5l1-2.6h4.6l1,2.6h2.5L49.3,8.5z M46.4,15.5l1.6-4.3l1.6,4.3H46.4z"/>
</g>
</svg>
