<?xml version="1.0" encoding="utf-8"?>
<!-- Generator: Adobe Illustrator 21.0.0, SVG Export Plug-In . SVG Version: 6.00 Build 0)  -->
<svg version="1.1" xmlns="http://www.w3.org/2000/svg" xmlns:xlink="http://www.w3.org/1999/xlink" x="0px" y="0px"
	 viewBox="0 0 500 500" style="enable-background:new 0 0 500 500;" xml:space="preserve">
<style type="text/css">
	.st0{fill:#00639E;}
	.st1{fill:#D3D6D8;}
	.st2{fill:#BC61A2;}
	.st3{fill:url(#SVGID_1_);}
	.st4{fill:url(#SVGID_2_);}
	.st5{fill:url(#SVGID_3_);}
	.st6{fill:url(#SVGID_4_);}
	.st7{fill:#E6A9CC;}
	.st8{fill:#4B5961;}
	.st9{fill:#FFCE8A;}
	.st10{fill:#EDAD56;}
	.st11{fill:#FBBD5B;}
	.st12{enable-background:new    ;}
	.st13{fill:#4B4D56;}
	.st14{fill:#AFDFE8;}
	.st15{fill:#8CC6CC;}
	.st16{fill:#3DA49A;}
	.st17{fill:url(#SVGID_5_);}
	.st18{fill:url(#SVGID_6_);}
	.st19{fill:url(#SVGID_7_);}
	.st20{fill:url(#SVGID_8_);}
	.st21{fill:#DDAB62;}
	.st22{fill:#C78B2B;}
	.st23{fill:url(#SVGID_9_);}
	.st24{fill:#E4E2E4;}
	.st25{fill-rule:evenodd;clip-rule:evenodd;fill:#D3D6D8;}
	.st26{fill:#EAEFF2;}
	.st27{fill-rule:evenodd;clip-rule:evenodd;fill:#F7BD19;}
	.st28{fill:url(#SVGID_10_);}
	.st29{fill:url(#SVGID_11_);}
	.st30{fill:url(#SVGID_12_);}
	.st31{fill:url(#SVGID_13_);}
	.st32{fill:url(#SVGID_14_);}
	.st33{fill:url(#SVGID_15_);}
	.st34{fill:url(#SVGID_16_);}
	.st35{fill:url(#SVGID_17_);}
	.st36{fill:url(#SVGID_18_);}
	.st37{fill:url(#SVGID_19_);}
	.st38{fill:url(#SVGID_20_);}
	.st39{fill:#36708C;}
	.st40{fill:#4D96BC;}
	.st41{fill:url(#SVGID_21_);}
	.st42{fill:#FFFFFF;}
	.st43{fill:url(#SVGID_22_);}
	.st44{fill:url(#SVGID_23_);}
	.st45{fill:url(#SVGID_24_);}
	.st46{fill:url(#SVGID_25_);}
	.st47{fill:url(#SVGID_26_);}
	.st48{fill:url(#SVGID_27_);}
	.st49{fill:url(#SVGID_28_);}
	.st50{fill:url(#SVGID_29_);}
	.st51{fill:url(#SVGID_30_);}
	.st52{fill:url(#SVGID_31_);}
	.st53{fill:url(#SVGID_32_);}
	.st54{fill:url(#SVGID_33_);}
	.st55{fill:url(#SVGID_34_);}
	.st56{fill:url(#SVGID_35_);}
	.st57{fill:url(#SVGID_36_);}
	.st58{fill:url(#SVGID_37_);}
	.st59{fill:url(#SVGID_38_);}
	.st60{fill:url(#SVGID_39_);}
	.st61{fill:url(#SVGID_40_);}
	.st62{fill:url(#SVGID_41_);}
	.st63{fill:url(#SVGID_42_);}
	.st64{fill:url(#SVGID_43_);}
	.st65{fill:url(#SVGID_44_);}
	.st66{fill:url(#SVGID_45_);}
	.st67{fill:url(#SVGID_46_);}
	.st68{fill:url(#SVGID_47_);}
	.st69{fill:url(#SVGID_48_);}
	.st70{fill:url(#SVGID_49_);}
	.st71{fill:url(#SVGID_50_);}
	.st72{fill:url(#SVGID_51_);}
	.st73{fill:url(#SVGID_52_);}
	.st74{fill:url(#SVGID_53_);}
	.st75{fill:url(#SVGID_54_);}
	.st76{fill:#F1A049;}
	.st77{fill:#F4C545;}
	.st78{fill:#FBD16B;}
	.st79{fill:#FFF0E1;}
</style>
<g id="lantai">
	<g>
		<g>
			<path class="st0" d="M388.1,367.7c11.3,0,22.5-3,32.3-8.8l54-31.8c6.3-3.7,10-10.3,10-17.6c0-7.3-3.8-13.8-10.1-17.5L274.9,176.1
				l-86.1,50.7c-6.3,3.7-10,10.3-10,17.6c0,7.3,3.8,13.8,10.1,17.5l167.2,97.2C365.8,364.7,376.8,367.7,388.1,367.7z"/>
		</g>
		<path class="st1" d="M185.6,267.5l167.2,97.2c21.9,12.7,49,12.7,70.8-0.2l54-31.8c17.7-10.4,17.6-36-0.1-46.3L274.9,168.6
			l-89.4,52.6C167.8,231.6,167.9,257.2,185.6,267.5z M178.8,244.4c0-7.3,3.7-13.9,10-17.6l86.1-50.7L474.3,292
			c6.3,3.7,10.1,10.2,10.1,17.5c0,7.3-3.7,13.9-10,17.6l-54,31.8c-9.8,5.8-20.9,8.8-32.3,8.8c-11.2,0-22.3-3-32-8.6l-167.2-97.2
			C182.5,258.2,178.8,251.7,178.8,244.4z"/>
		<g>
			<path class="st0" d="M223.5,464c11.3,0,22.5-3,32.3-8.8l54-31.8c6.3-3.7,10-10.3,10-17.6c0-7.3-3.8-13.8-10.1-17.5L110.4,272.4
				l-86.1,50.7c-6.3,3.7-10,10.3-10,17.6c0,7.3,3.8,13.8,10.1,17.5l167.2,97.2C201.3,461,212.3,464,223.5,464z"/>
		</g>
		<path class="st1" d="M21.1,363.8l167.2,97.2c21.9,12.7,49,12.7,70.8-0.2l54-31.8c17.7-10.4,17.6-36-0.1-46.3L110.4,264.9
			l-89.4,52.6C3.3,327.9,3.3,353.5,21.1,363.8z M14.2,340.7c0-7.3,3.7-13.9,10-17.6l86.1-50.7l199.4,115.9
			c6.3,3.7,10.1,10.2,10.1,17.5c0,7.3-3.7,13.9-10,17.6l-54,31.8c-9.8,5.8-20.9,8.8-32.3,8.8c-11.2,0-22.3-3-32-8.6L24.3,358.2
			C18,354.5,14.2,347.9,14.2,340.7z"/>
	</g>
</g>
<g id="building_merchant">
	<g>
		<polygon class="st2" points="65.3,242.4 65,335.6 51,327.5 51.3,234.3 		"/>
	</g>
	<g>
		<linearGradient id="SVGID_1_" gradientUnits="userSpaceOnUse" x1="105.2772" y1="337.1808" x2="140.0528" y2="337.1808">
			<stop  offset="0.12" style="stop-color:#57C6F2"/>
			<stop  offset="1" style="stop-color:#4577BB"/>
		</linearGradient>
		<polygon class="st3" points="140.1,285.5 139.7,378.7 105.3,388.9 105.6,295.6 		"/>
	</g>
	<g>
		<linearGradient id="SVGID_2_" gradientUnits="userSpaceOnUse" x1="47.6247" y1="325.6087" x2="105.6047" y2="325.6087">
			<stop  offset="0.12" style="stop-color:#57C6F2"/>
			<stop  offset="1" style="stop-color:#4577BB"/>
		</linearGradient>
		<polygon class="st4" points="105.6,295.6 105.3,388.9 47.6,355.6 48,262.4 		"/>
	</g>
	<g>
		<linearGradient id="SVGID_3_" gradientUnits="userSpaceOnUse" x1="139.7252" y1="346.515" x2="189.9532" y2="346.515">
			<stop  offset="0.12" style="stop-color:#57C6F2"/>
			<stop  offset="1" style="stop-color:#4577BB"/>
		</linearGradient>
		<polygon class="st5" points="190,314.3 189.6,407.5 139.7,378.7 140.1,285.5 		"/>
	</g>
	<g>
		<linearGradient id="SVGID_4_" gradientUnits="userSpaceOnUse" x1="189.6257" y1="320.9057" x2="327.6636" y2="320.9057">
			<stop  offset="0.12" style="stop-color:#57C6F2"/>
			<stop  offset="1" style="stop-color:#4577BB"/>
		</linearGradient>
		<polygon class="st6" points="327.7,234.3 327.3,327.5 189.6,407.5 190,314.3 		"/>
	</g>
	<g>
		<polygon class="st7" points="327.7,234.3 190,314.3 140.1,285.5 105.6,295.6 48,262.4 65.3,242.4 51.3,234.3 189.1,154.2 		"/>
	</g>
	<g>
		<g>
			<polygon class="st8" points="59.8,298 59.7,334.3 88.5,351.2 88.6,314.8 			"/>
		</g>
		<g>
			<polygon class="st9" points="86.7,352.2 90.4,350.1 61.6,333.3 57.9,335.4 			"/>
		</g>
		<g>
			<polygon class="st10" points="57.9,335.4 61.6,333.3 61.6,296.9 58,299 			"/>
		</g>
		<g>
			<polygon class="st9" points="89.1,314.5 92.8,312.4 59.4,292.9 55.7,295.1 			"/>
		</g>
		<g>
			<polygon class="st10" points="88.9,356.7 92.6,354.5 92.8,312.4 89.1,314.5 			"/>
		</g>
		<path class="st11" d="M55.6,337.2l33.4,19.5l0.1-42.2l-33.4-19.5L55.6,337.2z M86.7,352.2l-28.8-16.8L58,299l28.8,16.8L86.7,352.2
			z"/>
	</g>
	<g>
		<g>
			<g class="st12">
				<g>
					<polygon class="st11" points="60.6,235.4 60.3,247 45.8,238.6 46.1,227 					"/>
				</g>
				<g>
					<polygon class="st10" points="138,280.1 137.6,291.7 102,302.2 102.3,290.6 					"/>
				</g>
				<g>
					<polygon class="st11" points="102.3,290.6 102,302.2 42.3,267.7 42.6,256.1 					"/>
				</g>
				<g>
					<polygon class="st11" points="189.7,309.9 189.3,321.5 137.6,291.7 138,280.1 					"/>
				</g>
				<g>
					<polygon class="st10" points="332.3,227 331.9,238.6 189.3,321.5 189.7,309.9 					"/>
				</g>
				<g>
					<polygon class="st9" points="332.3,227 189.7,309.9 138,280.1 102.3,290.6 42.6,256.1 60.6,235.4 46.1,227 188.7,144.1 					
						"/>
				</g>
			</g>
		</g>
		<g>
			<g class="st12">
				<g>
					<polygon class="st13" points="311.5,226.2 189.7,155.4 67.1,226.2 188.9,297 					"/>
				</g>
				<g>
					<polygon class="st14" points="302,231.7 311.5,226.2 189.4,155.4 189.7,166.4 					"/>
				</g>
				<g>
					<polygon class="st15" points="189.7,166.4 189.4,155.4 67.1,226.2 76.6,231.7 					"/>
				</g>
			</g>
		</g>
	</g>
	<g>
		<polygon class="st16" points="65.3,141.3 65,234.6 51,226.5 51.3,133.2 		"/>
	</g>
	<g>
		<linearGradient id="SVGID_5_" gradientUnits="userSpaceOnUse" x1="105.2772" y1="236.1498" x2="140.0528" y2="236.1498">
			<stop  offset="0.12" style="stop-color:#57C6F2"/>
			<stop  offset="1" style="stop-color:#4577BB"/>
		</linearGradient>
		<polygon class="st17" points="140.1,184.5 139.7,277.7 105.3,287.8 105.6,194.6 		"/>
	</g>
	<g>
		<linearGradient id="SVGID_6_" gradientUnits="userSpaceOnUse" x1="47.6247" y1="224.5777" x2="105.6047" y2="224.5777">
			<stop  offset="0.12" style="stop-color:#57C6F2"/>
			<stop  offset="1" style="stop-color:#4577BB"/>
		</linearGradient>
		<polygon class="st18" points="105.6,194.6 105.3,287.8 47.6,254.5 48,161.3 		"/>
	</g>
	<g>
		<linearGradient id="SVGID_7_" gradientUnits="userSpaceOnUse" x1="139.7252" y1="245.4841" x2="189.9532" y2="245.4841">
			<stop  offset="0.12" style="stop-color:#57C6F2"/>
			<stop  offset="1" style="stop-color:#4577BB"/>
		</linearGradient>
		<polygon class="st19" points="190,213.3 189.6,306.5 139.7,277.7 140.1,184.5 		"/>
	</g>
	<g>
		<linearGradient id="SVGID_8_" gradientUnits="userSpaceOnUse" x1="189.6257" y1="219.8748" x2="327.6636" y2="219.8748">
			<stop  offset="0.12" style="stop-color:#57C6F2"/>
			<stop  offset="1" style="stop-color:#4577BB"/>
		</linearGradient>
		<polygon class="st20" points="327.7,133.2 327.3,226.5 189.6,306.5 190,213.3 		"/>
	</g>
	<g>
		<polygon class="st7" points="327.7,133.2 190,213.3 140.1,184.5 105.6,194.6 48,161.3 65.3,141.3 51.3,133.2 189.1,53.2 		"/>
	</g>
	<g>
		<polygon class="st21" points="60.6,134.4 60.3,146 45.8,137.6 46.1,126 		"/>
	</g>
	<g>
		<polygon class="st22" points="138,179 137.6,190.6 102,201.1 102.3,189.5 		"/>
	</g>
	<g>
		<polygon class="st21" points="102.3,189.5 102,201.1 42.3,166.7 42.6,155.1 		"/>
	</g>
	<g>
		<polygon class="st21" points="189.7,208.9 189.3,220.5 137.6,190.6 138,179 		"/>
	</g>
	<g>
		<polygon class="st22" points="332.3,126 331.9,137.6 189.3,220.5 189.7,208.9 		"/>
	</g>
	<g>
		<linearGradient id="SVGID_9_" gradientUnits="userSpaceOnUse" x1="42.6064" y1="125.9826" x2="332.2629" y2="125.9826">
			<stop  offset="0.12" style="stop-color:#57C6F2"/>
			<stop  offset="1" style="stop-color:#4577BB"/>
		</linearGradient>
		<polygon class="st23" points="332.3,126 189.7,208.9 138,179 102.3,189.5 42.6,155.1 60.6,134.4 46.1,126 188.7,43.1 		"/>
	</g>
	<g>
		<polygon class="st13" points="311.5,125.2 189.4,54.4 67.1,125.2 188.9,196 		"/>
	</g>
	<g>
		<polygon class="st22" points="302,130.7 311.5,125.2 189.4,54.4 189.7,65.4 		"/>
	</g>
	<g>
		<polygon class="st21" points="189.7,65.4 189.4,54.4 67.1,125.2 76.6,130.7 		"/>
	</g>
	<g>
		<g>
			<polygon class="st8" points="59.8,196.9 59.7,233.3 88.5,250.1 88.6,213.7 			"/>
		</g>
		<g>
			<polygon class="st9" points="86.7,251.2 90.4,249 61.6,232.2 57.9,234.4 			"/>
		</g>
		<g>
			<polygon class="st10" points="57.9,234.4 61.6,232.2 61.6,195.8 58,198 			"/>
		</g>
		<g>
			<polygon class="st9" points="89.1,213.5 92.8,211.3 59.4,191.9 55.7,194 			"/>
		</g>
		<g>
			<polygon class="st10" points="88.9,255.6 92.6,253.5 92.8,211.3 89.1,213.5 			"/>
		</g>
		<path class="st11" d="M55.6,236.2l33.4,19.5l0.1-42.2L55.7,194L55.6,236.2z M86.7,251.2l-28.8-16.8L58,198l28.8,16.8L86.7,251.2z"
			/>
	</g>
	<g>
		<g>
			<polygon class="st8" points="155.4,223.2 155.4,259.6 175.4,271 175.4,234.6 			"/>
		</g>
		<g>
			<polygon class="st9" points="173.5,272.1 177.2,269.9 157.2,258.5 153.5,260.6 			"/>
		</g>
		<g>
			<polygon class="st10" points="153.5,260.6 157.2,258.5 157.3,222.1 153.6,224.2 			"/>
		</g>
		<g>
			<polygon class="st9" points="175.9,234.3 179.6,232.2 155,218.1 151.3,220.3 			"/>
		</g>
		<g>
			<polygon class="st10" points="175.8,276.5 179.4,274.4 179.6,232.2 175.9,234.3 			"/>
		</g>
		<path class="st11" d="M151.2,262.4l24.5,14.1l0.1-42.2l-24.6-14.1L151.2,262.4z M173.5,272.1l-20-11.4l0.1-36.4l20,11.4
			L173.5,272.1z"/>
	</g>
	<g>
		<g>
			<polygon class="st8" points="155.4,321.1 155.4,357.5 175.4,368.9 175.4,332.5 			"/>
		</g>
		<g>
			<polygon class="st9" points="173.5,370 177.2,367.8 157.2,356.4 153.5,358.5 			"/>
		</g>
		<g>
			<polygon class="st10" points="153.5,358.5 157.2,356.4 157.3,320 153.6,322.2 			"/>
		</g>
		<g>
			<polygon class="st9" points="175.9,332.3 179.6,330.1 155,316 151.3,318.2 			"/>
		</g>
		<g>
			<polygon class="st10" points="175.8,374.4 179.4,372.3 179.6,330.1 175.9,332.3 			"/>
		</g>
		<path class="st11" d="M151.2,360.4l24.5,14.1l0.1-42.2l-24.6-14.1L151.2,360.4z M173.5,370l-20-11.4l0.1-36.4l20,11.4L173.5,370z"
			/>
	</g>
	<g>
		<g>
			<g>
				<polygon class="st8" points="240.7,238.1 240.8,253.6 204.2,274.8 204.2,259.3 				"/>
			</g>
			<g>
				<polygon class="st9" points="206.1,275.9 202.4,273.7 239,252.5 242.6,254.7 				"/>
			</g>
			<g>
				<polygon class="st11" points="242.6,254.7 239,252.5 238.9,237 242.6,239.2 				"/>
			</g>
			<g>
				<polygon class="st24" points="203.7,259 200,256.9 241.2,233 244.9,235.2 				"/>
			</g>
			<g>
				<polygon class="st11" points="203.8,280.3 200.1,278.2 200,256.9 203.7,259 				"/>
			</g>
			<path class="st10" d="M244.9,235.2L203.7,259l0.1,21.3l41.2-23.8L244.9,235.2z M206,260.4l36.6-21.2l0.1,15.5l-36.6,21.2
				L206,260.4z"/>
		</g>
		<g>
			<g>
				<polygon class="st8" points="240.7,219.2 240.7,234.7 204.1,255.9 204.1,240.4 				"/>
			</g>
			<g>
				<polygon class="st9" points="206,257 202.3,254.8 238.9,233.6 242.6,235.8 				"/>
			</g>
			<g>
				<polygon class="st11" points="242.6,235.8 238.9,233.6 238.8,218.1 242.5,220.3 				"/>
			</g>
			<g>
				<polygon class="st9" points="203.6,240.2 199.9,238 241.1,214.2 244.8,216.3 				"/>
			</g>
			<g>
				<polygon class="st11" points="203.7,261.4 200,259.3 199.9,238 203.6,240.2 				"/>
			</g>
			<path class="st10" d="M244.8,216.3l-41.2,23.8l0.1,21.3l41.2-23.8L244.8,216.3z M205.9,241.5l36.6-21.2l0.1,15.5L206,257
				L205.9,241.5z"/>
		</g>
	</g>
	<g>
		<g>
			<g>
				<polygon class="st8" points="311.1,197.5 311.1,213 274.6,234.1 274.5,218.7 				"/>
			</g>
			<g>
				<polygon class="st9" points="276.4,235.2 272.7,233.1 309.3,211.9 313,214 				"/>
			</g>
			<g>
				<polygon class="st11" points="313,214 309.3,211.9 309.2,196.4 312.9,198.5 				"/>
			</g>
			<g>
				<polygon class="st24" points="274,218.4 270.3,216.3 311.5,192.4 315.2,194.6 				"/>
			</g>
			<g>
				<polygon class="st11" points="274.2,239.7 270.5,237.5 270.3,216.3 274,218.4 				"/>
			</g>
			<path class="st10" d="M315.2,194.6L274,218.4l0.1,21.3l41.2-23.8L315.2,194.6z M276.4,219.7l36.6-21.2L313,214l-36.6,21.2
				L276.4,219.7z"/>
		</g>
		<g>
			<g>
				<polygon class="st8" points="311,178.6 311.1,194.1 274.5,215.3 274.4,199.8 				"/>
			</g>
			<g>
				<polygon class="st9" points="276.3,216.3 272.6,214.2 309.2,193 312.9,195.1 				"/>
			</g>
			<g>
				<polygon class="st11" points="312.9,195.1 309.2,193 309.2,177.5 312.8,179.7 				"/>
			</g>
			<g>
				<polygon class="st9" points="273.9,199.5 270.3,197.4 311.4,173.5 315.1,175.7 				"/>
			</g>
			<g>
				<polygon class="st11" points="274.1,220.8 270.4,218.6 270.3,197.4 273.9,199.5 				"/>
			</g>
			<path class="st10" d="M315.1,175.7l-41.2,23.8l0.1,21.3l41.2-23.8L315.1,175.7z M276.3,200.8l36.6-21.2l0.1,15.5l-36.6,21.2
				L276.3,200.8z"/>
		</g>
	</g>
	<g>
		<g>
			<g>
				<polygon class="st8" points="240.7,333.6 240.8,349.1 204.2,370.3 204.2,354.8 				"/>
			</g>
			<g>
				<polygon class="st9" points="206.1,371.4 202.4,369.2 239,348 242.6,350.2 				"/>
			</g>
			<g>
				<polygon class="st11" points="242.6,350.2 239,348 238.9,332.5 242.6,334.7 				"/>
			</g>
			<g>
				<polygon class="st24" points="203.7,354.5 200,352.4 241.2,328.6 244.9,330.7 				"/>
			</g>
			<g>
				<polygon class="st11" points="203.8,375.8 200.1,373.7 200,352.4 203.7,354.5 				"/>
			</g>
			<path class="st10" d="M244.9,330.7l-41.2,23.8l0.1,21.3L245,352L244.9,330.7z M206,355.9l36.6-21.2l0.1,15.5l-36.6,21.2
				L206,355.9z"/>
		</g>
		<g>
			<g>
				<polygon class="st8" points="240.7,314.7 240.7,330.2 204.1,351.4 204.1,335.9 				"/>
			</g>
			<g>
				<polygon class="st9" points="206,352.5 202.3,350.3 238.9,329.2 242.6,331.3 				"/>
			</g>
			<g>
				<polygon class="st11" points="242.6,331.3 238.9,329.2 238.8,313.7 242.5,315.8 				"/>
			</g>
			<g>
				<polygon class="st9" points="203.6,335.7 199.9,333.5 241.1,309.7 244.8,311.8 				"/>
			</g>
			<g>
				<polygon class="st11" points="203.7,356.9 200,354.8 199.9,333.5 203.6,335.7 				"/>
			</g>
			<path class="st10" d="M244.8,311.8l-41.2,23.8l0.1,21.3l41.2-23.8L244.8,311.8z M205.9,337l36.6-21.2l0.1,15.5L206,352.5
				L205.9,337z"/>
		</g>
	</g>
	<g>
		<polygon class="st8" points="307.1,283.3 277.8,301.6 276.8,357.5 278.4,356 307.2,339.4 308.7,283.3 		"/>
		<polygon class="st11" points="310.4,341.3 310.3,304.6 310.3,304.6 310.3,285.1 307.1,283.3 307.1,303.9 307.1,303.9 307.2,339.4 
					"/>
		<g>
			<polygon class="st9" points="276.3,302.4 273.1,300.6 309.1,279.8 312.3,281.7 			"/>
		</g>
		<g>
			<polygon class="st11" points="276.4,360.9 273.2,359.1 273.1,300.6 276.3,302.4 			"/>
		</g>
		<polygon class="st10" points="312.3,281.7 312.4,340.1 310.4,341.3 310.4,339 310.3,304.6 310.3,302.4 310.3,285.1 295.3,293.8 
			293.3,294.9 278.3,303.6 278.4,338 278.4,340.2 278.4,357.4 278.4,359.8 276.4,360.9 276.3,302.4 		"/>
	</g>
	<polygon class="st22" points="250.6,295.9 267.5,314.7 267.7,315.9 250.5,303.6 	"/>
	<path class="st25" d="M279.7,307.7l-6.1,3.5c0,1.9,1.4,2.7,3,1.8C278.3,312,279.7,309.6,279.7,307.7L279.7,307.7z M291.9,300.7
		l-6.1,3.5c0,1.9,1.4,2.7,3,1.8C290.5,305,291.9,302.6,291.9,300.7L291.9,300.7z M304.1,293.6l-6.1,3.5c0,1.9,1.4,2.7,3,1.8
		C302.7,297.9,304.1,295.6,304.1,293.6L304.1,293.6z M316.3,286.6l-6.1,3.5c0,1.9,1.4,2.7,3,1.8
		C314.9,290.9,316.3,288.5,316.3,286.6L316.3,286.6z M322.3,283.1c0,1.9,1.4,2.7,3,1.8c1.7-1,3-3.3,3-5.3L322.3,283.1z"/>
	<g>
		<path class="st22" d="M282.7,309.5c1.7-1,3-3.3,3-5.3l-6.1,3.5C279.7,309.6,281.1,310.4,282.7,309.5z"/>
		<path class="st22" d="M270.5,316.5c1.7-1,3-3.3,3-5.3l-6.1,3.5C267.5,316.7,268.9,317.5,270.5,316.5z"/>
		<path class="st22" d="M294.9,302.4c1.7-1,3-3.3,3-5.3l-6.1,3.5C291.9,302.6,293.2,303.4,294.9,302.4z"/>
		<path class="st22" d="M307.1,295.4c1.7-1,3-3.3,3-5.3l-6.1,3.5C304.1,295.6,305.4,296.4,307.1,295.4z"/>
		<path class="st22" d="M319.3,288.4c1.7-1,3-3.3,3-5.3l-6.1,3.5C316.3,288.5,317.6,289.3,319.3,288.4z"/>
		<path class="st22" d="M328.4,279.6c0,1.9,1.4,2.7,3,1.8c1.7-1,3-3.3,3-5.3L328.4,279.6z"/>
	</g>
	<g>
		<polygon class="st26" points="268.9,285.3 285.8,304.2 291.9,300.7 275,281.8 		"/>
		<polygon class="st26" points="256.7,292.4 273.6,311.2 279.7,307.7 262.8,288.8 		"/>
		<polygon class="st26" points="281.1,278.3 298,297.2 304.1,293.6 287.2,274.8 		"/>
		<polygon class="st26" points="311.6,260.7 305.5,264.2 322.3,283.1 328.4,279.6 		"/>
		<polygon class="st26" points="293.3,271.3 310.2,290.1 316.3,286.6 299.4,267.7 		"/>
	</g>
	<g>
		<polygon class="st27" points="317.7,257.2 311.6,260.7 328.4,279.6 334.5,276 		"/>
		<polygon class="st27" points="275,281.8 291.9,300.7 298,297.2 281.1,278.3 		"/>
		<polygon class="st27" points="299.4,267.7 316.3,286.6 322.3,283.1 305.5,264.2 		"/>
		<polygon class="st27" points="262.8,288.8 279.7,307.7 285.8,304.2 268.9,285.3 		"/>
		<polygon class="st27" points="287.2,274.8 304.1,293.6 310.2,290.1 293.3,271.3 		"/>
		<polygon class="st27" points="250.6,295.9 267.5,314.7 273.6,311.2 256.7,292.4 		"/>
	</g>
	<path class="st25" d="M79.2,317.7c0,1.2,0.9,2.7,1.9,3.3c1.1,0.6,1.9,0.1,1.9-1.1L79.2,317.7L79.2,317.7z M71.6,313.3
		c0,1.2,0.9,2.7,1.9,3.3c1.1,0.6,1.9,0.1,1.9-1.1L71.6,313.3L71.6,313.3z M63.9,308.9c0,1.2,0.9,2.7,1.9,3.3
		c1.1,0.6,1.9,0.1,1.9-1.1L63.9,308.9L63.9,308.9z M56.2,304.5c0,1.2,0.9,2.7,1.9,3.3c1.1,0.6,1.9,0.1,1.9-1.1L56.2,304.5
		L56.2,304.5z M48.5,300c0,1.2,0.9,2.7,1.9,3.3c1.1,0.6,1.9,0.1,1.9-1.1L48.5,300z"/>
	<g>
		<polygon class="st22" points="97.5,310.3 86.9,322.2 86.8,322.9 97.6,315.2 		"/>
		<g>
			<path class="st22" d="M77.3,318.9c-1.1-0.6-1.9-2.1-1.9-3.3l3.8,2.2C79.2,319,78.4,319.5,77.3,318.9z"/>
			<path class="st22" d="M85,323.3c-1.1-0.6-1.9-2.1-1.9-3.3l3.8,2.2C86.9,323.4,86,323.9,85,323.3z"/>
			<path class="st22" d="M69.6,314.4c-1.1-0.6-1.9-2.1-1.9-3.3l3.8,2.2C71.6,314.5,70.7,315,69.6,314.4z"/>
			<path class="st22" d="M62,310c-1.1-0.6-1.9-2.1-1.9-3.3l3.8,2.2C63.9,310.1,63,310.6,62,310z"/>
			<path class="st22" d="M54.3,305.6c-1.1-0.6-1.9-2.1-1.9-3.3l3.8,2.2C56.2,305.7,55.3,306.2,54.3,305.6z"/>
			<path class="st22" d="M48.5,300c0,1.2-0.9,1.7-1.9,1.1c-1.1-0.6-1.9-2.1-1.9-3.3L48.5,300z"/>
		</g>
	</g>
	<g>
		<polygon class="st26" points="86,303.7 75.4,315.5 71.6,313.3 82.2,301.4 		"/>
		<polygon class="st26" points="93.7,308.1 83.1,320 79.2,317.7 89.8,305.9 		"/>
		<polygon class="st26" points="78.3,299.2 67.7,311.1 63.9,308.9 74.5,297 		"/>
		<polygon class="st26" points="59.2,288.2 63,290.4 52.4,302.2 48.5,300 		"/>
		<polygon class="st26" points="70.7,294.8 60,306.7 56.2,304.5 66.8,292.6 		"/>
	</g>
	<g>
		<polygon class="st27" points="55.3,285.9 59.2,288.2 48.5,300 44.7,297.8 		"/>
		<polygon class="st27" points="82.2,301.4 71.6,313.3 67.7,311.1 78.3,299.2 		"/>
		<polygon class="st27" points="66.8,292.6 56.2,304.5 52.4,302.2 63,290.4 		"/>
		<polygon class="st27" points="89.8,305.9 79.2,317.7 75.4,315.5 86,303.7 		"/>
		<polygon class="st27" points="74.5,297 63.9,308.9 60,306.7 70.7,294.8 		"/>
		<polygon class="st27" points="97.5,310.3 86.9,322.2 83.1,320 93.7,308.1 		"/>
	</g>
	<g>
		<g>
			<g>
				<linearGradient id="SVGID_10_" gradientUnits="userSpaceOnUse" x1="189.7712" y1="173.0908" x2="200.3215" y2="173.0908">
					<stop  offset="0.12" style="stop-color:#57C6F2"/>
					<stop  offset="1" style="stop-color:#4577BB"/>
				</linearGradient>
				<path class="st28" d="M198,175.8C198,175.8,198,175.8,198,175.8c-0.1,0-0.1,0-0.2,0.1c-0.2,0.1-0.3,0.1-0.5,0.2
					c-0.1,0-0.2,0-0.3,0.1c0,0-0.1,0-0.1,0c0,0-0.1,0-0.1,0c-0.2,0-0.3,0.1-0.5,0.1c-0.1,0-0.1,0-0.2,0c0,0-0.1,0-0.1,0
					c-0.1,0-0.1,0-0.2,0c-0.2,0-0.3,0-0.5,0c-0.1,0-0.1,0-0.2,0c0,0-0.1,0-0.1,0c-0.1,0-0.2,0-0.2,0c-0.2,0-0.4,0-0.6,0
					c0,0,0,0-0.1,0c-0.1,0-0.1,0-0.2,0c-0.2,0-0.3,0-0.4-0.1c-0.1,0-0.1,0-0.2,0c-0.2,0-0.3-0.1-0.5-0.1c-0.1,0-0.2,0-0.3-0.1
					c0,0-0.1,0-0.1-0.1c-0.4-0.1-0.7-0.3-1-0.4c0,0,0,0-0.1,0c-0.1-0.1-0.2-0.1-0.3-0.2c-0.1-0.1-0.3-0.2-0.4-0.3c0,0,0,0,0,0
					c-0.1-0.1-0.2-0.2-0.3-0.3c0,0,0-0.1-0.1-0.1c0,0,0-0.1-0.1-0.1c0,0-0.1-0.1-0.1-0.1c-0.1-0.1-0.1-0.2-0.1-0.3c0,0,0,0,0,0
					c0,0,0,0,0-0.1c0-0.1,0-0.1-0.1-0.2c0-0.1,0-0.2,0-0.3c0,0,0,0,0,0l-0.2-3.5c0,0.2,0,0.4,0.1,0.5c0,0,0,0,0,0.1
					c0.1,0.2,0.1,0.3,0.2,0.5c0,0,0,0.1,0.1,0.1c0.1,0.2,0.3,0.3,0.4,0.5c0.1,0.1,0.2,0.2,0.4,0.3c0.1,0.1,0.2,0.2,0.3,0.2
					c0.3,0.2,0.7,0.3,1,0.4c0.1,0,0.3,0.1,0.4,0.1c0.2,0,0.3,0.1,0.5,0.1c0.2,0,0.4,0.1,0.6,0.1c0.1,0,0.1,0,0.2,0
					c0.3,0,0.6,0,0.9,0c0,0,0.1,0,0.1,0c0.3,0,0.6,0,0.9,0c0,0,0.1,0,0.1,0c0.3,0,0.6-0.1,0.8-0.1c0,0,0.1,0,0.1,0
					c0.2-0.1,0.5-0.1,0.7-0.2c0,0,0.1,0,0.1,0c0.3-0.1,0.5-0.2,0.8-0.4c1-0.6,1.5-1.4,1.5-2.1l0.2,3.5c0,0.8-0.5,1.6-1.5,2.1
					C198.6,175.6,198.3,175.7,198,175.8z"/>
				<g>
					<linearGradient id="SVGID_11_" gradientUnits="userSpaceOnUse" x1="189.7712" y1="169.8696" x2="200.157" y2="169.8696">
						<stop  offset="0.12" style="stop-color:#57C6F2"/>
						<stop  offset="1" style="stop-color:#4577BB"/>
					</linearGradient>
					<path class="st29" d="M191.3,172c-2-1.2-2-3.1,0-4.3c2-1.2,5.3-1.2,7.3,0c2,1.2,2,3.1,0,4.3C196.6,173.2,193.3,173.2,191.3,172
						z"/>
				</g>
			</g>
			<g>
				<linearGradient id="SVGID_12_" gradientUnits="userSpaceOnUse" x1="190.6949" y1="161.5188" x2="199.3977" y2="161.5188">
					<stop  offset="0.12" style="stop-color:#57C6F2"/>
					<stop  offset="1" style="stop-color:#4577BB"/>
				</linearGradient>
				<path class="st30" d="M197.5,171.6C197.5,171.6,197.5,171.6,197.5,171.6c-0.1,0-0.1,0-0.1,0c-0.1,0-0.3,0.1-0.4,0.1
					c-0.1,0-0.1,0-0.2,0.1c0,0-0.1,0-0.1,0c0,0-0.1,0-0.1,0c-0.1,0-0.3,0.1-0.4,0.1c-0.1,0-0.1,0-0.2,0c0,0-0.1,0-0.1,0
					c-0.1,0-0.1,0-0.2,0c-0.1,0-0.3,0-0.4,0c0,0-0.1,0-0.1,0c0,0-0.1,0-0.1,0c-0.1,0-0.1,0-0.2,0c-0.2,0-0.3,0-0.5,0c0,0,0,0-0.1,0
					c0,0-0.1,0-0.1,0c-0.1,0-0.2,0-0.4-0.1c-0.1,0-0.1,0-0.2,0c-0.1,0-0.3-0.1-0.4-0.1c-0.1,0-0.2,0-0.2-0.1c0,0-0.1,0-0.1,0
					c-0.3-0.1-0.6-0.2-0.8-0.4c0,0,0,0-0.1,0c-0.1,0-0.1-0.1-0.2-0.2c-0.1-0.1-0.2-0.1-0.3-0.2c0,0,0,0,0,0
					c-0.1-0.1-0.2-0.2-0.3-0.3c0,0,0,0,0-0.1c0,0,0,0,0-0.1c0,0-0.1-0.1-0.1-0.1c0-0.1-0.1-0.2-0.1-0.2c0,0,0,0,0,0c0,0,0,0,0,0
					c0-0.1,0-0.1,0-0.2c0-0.1,0-0.2,0-0.2c0,0,0,0,0,0l-0.1-18.5c0,0.1,0,0.3,0.1,0.4c0,0,0,0,0,0c0,0.1,0.1,0.3,0.2,0.4
					c0,0,0,0,0,0.1c0.1,0.1,0.2,0.3,0.3,0.4c0.1,0.1,0.2,0.1,0.3,0.2c0.1,0.1,0.2,0.1,0.3,0.2c0.3,0.1,0.5,0.3,0.8,0.4
					c0.1,0,0.2,0.1,0.3,0.1c0.1,0,0.3,0.1,0.4,0.1c0.2,0,0.3,0.1,0.5,0.1c0,0,0.1,0,0.1,0c0.2,0,0.5,0,0.7,0c0,0,0.1,0,0.1,0
					c0.2,0,0.5,0,0.7,0c0,0,0.1,0,0.1,0c0.2,0,0.5-0.1,0.7-0.1c0,0,0.1,0,0.1,0c0.2-0.1,0.4-0.1,0.6-0.2c0,0,0.1,0,0.1,0
					c0.2-0.1,0.5-0.2,0.7-0.3c0.8-0.5,1.3-1.1,1.3-1.8l0.1,18.5c0,0.6-0.4,1.3-1.3,1.8C197.9,171.4,197.7,171.5,197.5,171.6z"/>
				<g>
					<linearGradient id="SVGID_13_" gradientUnits="userSpaceOnUse" x1="190.695" y1="151.0309" x2="199.262" y2="151.0309">
						<stop  offset="0.12" style="stop-color:#57C6F2"/>
						<stop  offset="1" style="stop-color:#4577BB"/>
					</linearGradient>
					<path class="st31" d="M191.9,152.8c-1.7-1-1.7-2.5,0-3.5c1.7-1,4.4-1,6.1,0c1.7,1,1.7,2.5,0,3.5
						C196.3,153.8,193.6,153.8,191.9,152.8z"/>
				</g>
			</g>
		</g>
		<g>
			<g>
				<linearGradient id="SVGID_14_" gradientUnits="userSpaceOnUse" x1="250.7262" y1="137.8483" x2="261.2764" y2="137.8483">
					<stop  offset="0.12" style="stop-color:#57C6F2"/>
					<stop  offset="1" style="stop-color:#4577BB"/>
				</linearGradient>
				<path class="st32" d="M259,140.6C259,140.6,259,140.6,259,140.6c-0.1,0-0.1,0-0.2,0.1c-0.2,0.1-0.3,0.1-0.5,0.2
					c-0.1,0-0.2,0-0.3,0.1c-0.1,0-0.1,0-0.1,0c0,0-0.1,0-0.1,0c-0.2,0-0.3,0.1-0.5,0.1c-0.1,0-0.1,0-0.2,0c0,0-0.1,0-0.1,0
					c-0.1,0-0.1,0-0.2,0c-0.2,0-0.3,0-0.5,0c-0.1,0-0.1,0-0.2,0c0,0-0.1,0-0.1,0c-0.1,0-0.2,0-0.2,0c-0.2,0-0.4,0-0.6,0
					c0,0,0,0-0.1,0c-0.1,0-0.1,0-0.2,0c-0.2,0-0.3,0-0.4-0.1c-0.1,0-0.1,0-0.2,0c-0.2,0-0.3-0.1-0.5-0.1c-0.1,0-0.2,0-0.3-0.1
					c0,0-0.1,0-0.1-0.1c-0.4-0.1-0.7-0.3-1-0.4c0,0,0,0-0.1,0c-0.1-0.1-0.2-0.1-0.3-0.2c-0.1-0.1-0.3-0.2-0.4-0.3c0,0,0,0,0,0
					c-0.1-0.1-0.2-0.2-0.3-0.3c0,0,0-0.1-0.1-0.1c0,0,0-0.1-0.1-0.1c0,0-0.1-0.1-0.1-0.1c-0.1-0.1-0.1-0.2-0.1-0.3c0,0,0,0,0,0
					c0,0,0,0,0-0.1c0-0.1,0-0.1-0.1-0.2c0-0.1,0-0.2,0-0.3c0,0,0,0,0,0l-0.2-3.5c0,0.2,0,0.4,0.1,0.5c0,0,0,0,0,0.1
					c0.1,0.2,0.1,0.3,0.2,0.5c0,0,0,0.1,0.1,0.1c0.1,0.2,0.3,0.3,0.4,0.5c0.1,0.1,0.2,0.2,0.4,0.3c0.1,0.1,0.2,0.2,0.3,0.2
					c0.3,0.2,0.7,0.3,1,0.4c0.1,0,0.3,0.1,0.4,0.1c0.2,0,0.3,0.1,0.5,0.1c0.2,0,0.4,0.1,0.6,0.1c0.1,0,0.1,0,0.2,0
					c0.3,0,0.6,0,0.9,0c0,0,0.1,0,0.1,0c0.3,0,0.6,0,0.9,0c0,0,0.1,0,0.1,0c0.3,0,0.6-0.1,0.8-0.1c0,0,0.1,0,0.1,0
					c0.2-0.1,0.5-0.1,0.7-0.2c0,0,0.1,0,0.1,0c0.3-0.1,0.5-0.2,0.8-0.4c1-0.6,1.5-1.4,1.5-2.1l0.2,3.5c0,0.8-0.5,1.6-1.5,2.1
					C259.5,140.3,259.3,140.5,259,140.6z"/>
				<g>
					<linearGradient id="SVGID_15_" gradientUnits="userSpaceOnUse" x1="250.7261" y1="134.6271" x2="261.1118" y2="134.6271">
						<stop  offset="0.12" style="stop-color:#57C6F2"/>
						<stop  offset="1" style="stop-color:#4577BB"/>
					</linearGradient>
					<path class="st33" d="M252.2,136.8c-2-1.2-2-3.1,0-4.3c2-1.2,5.3-1.2,7.3,0c2,1.2,2,3.1,0,4.3
						C257.5,137.9,254.3,137.9,252.2,136.8z"/>
				</g>
			</g>
			<g>
				<linearGradient id="SVGID_16_" gradientUnits="userSpaceOnUse" x1="251.6499" y1="126.2762" x2="260.3525" y2="126.2762">
					<stop  offset="0.12" style="stop-color:#57C6F2"/>
					<stop  offset="1" style="stop-color:#4577BB"/>
				</linearGradient>
				<path class="st34" d="M258.5,136.3C258.5,136.4,258.4,136.4,258.5,136.3c-0.1,0-0.1,0-0.1,0c-0.1,0-0.3,0.1-0.4,0.1
					c-0.1,0-0.1,0-0.2,0.1c0,0-0.1,0-0.1,0c0,0-0.1,0-0.1,0c-0.1,0-0.3,0.1-0.4,0.1c-0.1,0-0.1,0-0.2,0c0,0-0.1,0-0.1,0
					c-0.1,0-0.1,0-0.2,0c-0.1,0-0.3,0-0.4,0c0,0-0.1,0-0.1,0c0,0-0.1,0-0.1,0c-0.1,0-0.1,0-0.2,0c-0.2,0-0.3,0-0.5,0c0,0,0,0-0.1,0
					c0,0-0.1,0-0.1,0c-0.1,0-0.2,0-0.4-0.1c-0.1,0-0.1,0-0.2,0c-0.1,0-0.3-0.1-0.4-0.1c-0.1,0-0.2,0-0.2-0.1c0,0-0.1,0-0.1,0
					c-0.3-0.1-0.6-0.2-0.8-0.4c0,0,0,0-0.1,0c-0.1,0-0.1-0.1-0.2-0.2c-0.1-0.1-0.2-0.1-0.3-0.2c0,0,0,0,0,0
					c-0.1-0.1-0.2-0.2-0.3-0.3c0,0,0,0,0-0.1c0,0,0,0,0-0.1c0,0-0.1-0.1-0.1-0.1c0-0.1-0.1-0.2-0.1-0.2c0,0,0,0,0,0c0,0,0,0,0,0
					c0-0.1,0-0.1,0-0.2c0-0.1,0-0.2,0-0.2c0,0,0,0,0,0l-0.1-18.5c0,0.1,0,0.3,0.1,0.4c0,0,0,0,0,0c0,0.1,0.1,0.3,0.2,0.4
					c0,0,0,0,0,0.1c0.1,0.1,0.2,0.3,0.3,0.4c0.1,0.1,0.2,0.1,0.3,0.2c0.1,0.1,0.2,0.1,0.3,0.2c0.3,0.1,0.5,0.3,0.8,0.4
					c0.1,0,0.2,0.1,0.3,0.1c0.1,0,0.3,0.1,0.4,0.1c0.2,0,0.3,0.1,0.5,0.1c0,0,0.1,0,0.1,0c0.2,0,0.5,0,0.7,0c0,0,0.1,0,0.1,0
					c0.2,0,0.5,0,0.7,0c0,0,0.1,0,0.1,0c0.2,0,0.5-0.1,0.7-0.1c0,0,0.1,0,0.1,0c0.2-0.1,0.4-0.1,0.6-0.2c0,0,0.1,0,0.1,0
					c0.2-0.1,0.5-0.2,0.7-0.3c0.8-0.5,1.3-1.1,1.3-1.8l0.1,18.5c0,0.6-0.4,1.3-1.3,1.8C258.9,136.2,258.7,136.3,258.5,136.3z"/>
				<g>
					<linearGradient id="SVGID_17_" gradientUnits="userSpaceOnUse" x1="251.6499" y1="115.7884" x2="260.2168" y2="115.7884">
						<stop  offset="0.12" style="stop-color:#57C6F2"/>
						<stop  offset="1" style="stop-color:#4577BB"/>
					</linearGradient>
					<path class="st35" d="M252.9,117.5c-1.7-1-1.7-2.5,0-3.5c1.7-1,4.4-1,6.1,0c1.7,1,1.7,2.5,0,3.5
						C257.3,118.5,254.6,118.5,252.9,117.5z"/>
				</g>
			</g>
		</g>
		<g>
			<g class="st12">
				<g>
					<linearGradient id="SVGID_18_" gradientUnits="userSpaceOnUse" x1="173.728" y1="144.9736" x2="176.567" y2="144.9736">
						<stop  offset="0.12" style="stop-color:#57C6F2"/>
						<stop  offset="1" style="stop-color:#4577BB"/>
					</linearGradient>
					<polygon class="st36" points="176.4,128.4 176.6,163.1 173.9,161.5 173.7,126.9 					"/>
				</g>
				<g>
					<linearGradient id="SVGID_19_" gradientUnits="userSpaceOnUse" x1="173.728" y1="99.341" x2="274.4805" y2="99.341">
						<stop  offset="0.12" style="stop-color:#57C6F2"/>
						<stop  offset="1" style="stop-color:#4577BB"/>
					</linearGradient>
					<polygon class="st37" points="173.7,126.9 271.8,70.3 274.5,71.8 176.4,128.4 					"/>
				</g>
				<g>
					<linearGradient id="SVGID_20_" gradientUnits="userSpaceOnUse" x1="176.4069" y1="117.4404" x2="274.6406" y2="117.4404">
						<stop  offset="0.12" style="stop-color:#57C6F2"/>
						<stop  offset="1" style="stop-color:#4577BB"/>
					</linearGradient>
					<polygon class="st38" points="176.4,128.4 274.5,71.8 274.6,106.5 176.6,163.1 					"/>
				</g>
			</g>
		</g>
	</g>
</g>
<g id="kanebo">
	<g>
		<g>
			<g>
				<g class="st12">
					<g>
						<polygon class="st39" points="412.8,315.7 412.8,317.3 412.8,311.5 412.8,309.9 						"/>
					</g>
					<g>
						<polygon class="st10" points="388.7,315.7 388.7,317.3 395.7,321.4 395.7,319.8 						"/>
					</g>
					<g>
						<polygon class="st10" points="405.7,319.8 405.7,321.4 412.8,317.3 412.8,315.7 						"/>
					</g>
					<g>
						<polygon class="st11" points="395.7,319.8 395.7,321.4 405.7,321.4 405.7,319.8 						"/>
					</g>
					<g>
						<polygon class="st9" points="388.7,309.9 388.7,315.7 395.7,319.8 405.7,319.8 412.8,315.7 412.8,309.9 405.8,305.8 
							395.8,305.8 						"/>
					</g>
				</g>
			</g>
			<g>
				<g class="st12">
					<path class="st8" d="M399.5,290.3c0,0,0,0.1,0,0.1l0,0c0,0,0,0.1,0.1,0.1c0,0,0,0,0,0c0,0,0.1,0.1,0.1,0.1c0,0,0.1,0,0.1,0.1
						c0,0,0,0,0.1,0.1c0.1,0,0.2,0.1,0.2,0.1c0,0,0.1,0,0.1,0c0,0,0.1,0,0.1,0c0,0,0.1,0,0.1,0c0,0,0,0,0,0c0.1,0,0.1,0,0.2,0
						c0,0,0,0,0,0c0.1,0,0.1,0,0.2,0c0,0,0,0,0,0c0.1,0,0.1,0,0.2,0c0,0,0,0,0,0c0.1,0,0.1,0,0.2-0.1c0,0,0,0,0,0
						c0.1,0,0.1-0.1,0.2-0.1c0.1-0.1,0.2-0.1,0.3-0.2c0.1-0.1,0.1-0.2,0.1-0.3l0.1,21.7c0,0.2-0.1,0.4-0.4,0.5
						c-0.1,0-0.1,0.1-0.2,0.1c0,0,0,0,0,0c0,0,0,0,0,0c0,0-0.1,0-0.1,0c0,0,0,0-0.1,0c0,0,0,0,0,0c0,0,0,0,0,0c0,0-0.1,0-0.1,0
						c0,0,0,0,0,0c0,0,0,0,0,0c0,0,0,0,0,0c0,0-0.1,0-0.1,0c0,0,0,0,0,0c0,0,0,0,0,0c0,0,0,0-0.1,0c0,0-0.1,0-0.1,0l0,0c0,0,0,0,0,0
						c0,0-0.1,0-0.1,0c0,0,0,0,0,0c0,0-0.1,0-0.1,0c0,0,0,0-0.1,0c0,0,0,0,0,0c-0.1,0-0.2-0.1-0.2-0.1c0,0,0,0,0,0c0,0,0,0-0.1,0
						c0,0-0.1,0-0.1-0.1c0,0,0,0,0,0c0,0-0.1-0.1-0.1-0.1c0,0,0,0,0,0c0,0,0,0,0,0c0,0,0,0,0,0c0,0,0-0.1,0-0.1c0,0,0,0,0,0
						c0,0,0,0,0,0c0,0,0,0,0,0c0,0,0,0,0-0.1l0,0l0,0L399.5,290.3z"/>
					<g>
						<path class="st40" d="M399.8,289.8c-0.5,0.3-0.5,0.7,0,1c0.5,0.3,1.2,0.3,1.7,0c0.5-0.3,0.5-0.7,0-1
							C401,289.6,400.3,289.5,399.8,289.8z"/>
					</g>
				</g>
			</g>
			<g>
				<g class="st12">
					<g>
						<polygon class="st39" points="420.1,294.3 420.1,296.9 420.1,287.6 420.1,285 						"/>
					</g>
					<g>
						<polygon class="st10" points="381.4,294.3 381.4,296.9 392.7,303.5 392.7,300.8 						"/>
					</g>
					<g>
						<polygon class="st10" points="408.7,300.8 408.7,303.5 420.1,296.9 420.1,294.3 						"/>
					</g>
					<g>
						<polygon class="st11" points="392.7,300.8 392.7,303.5 408.7,303.5 408.7,300.8 						"/>
					</g>
					<g>
						<polygon class="st9" points="381.4,285 381.4,294.3 392.7,300.8 408.7,300.8 420.1,294.3 420.1,285 408.8,278.4 392.8,278.4 
													"/>
					</g>
				</g>
			</g>
			<g>
				<g class="st12">
					<path class="st8" d="M399.5,267.8c0,0,0,0.1,0,0.1c0,0,0,0,0,0c0,0,0,0.1,0.1,0.1c0,0,0,0,0,0c0,0,0.1,0.1,0.1,0.1
						c0,0,0.1,0,0.1,0.1c0,0,0,0,0.1,0.1c0.1,0,0.2,0.1,0.2,0.1c0,0,0.1,0,0.1,0c0,0,0.1,0,0.1,0c0,0,0.1,0,0.1,0c0,0,0,0,0,0
						c0.1,0,0.1,0,0.2,0c0,0,0,0,0,0c0.1,0,0.1,0,0.2,0c0,0,0,0,0,0c0.1,0,0.1,0,0.2,0c0,0,0,0,0,0c0.1,0,0.1,0,0.2-0.1c0,0,0,0,0,0
						c0.1,0,0.1-0.1,0.2-0.1c0.1-0.1,0.2-0.1,0.3-0.2c0.1-0.1,0.1-0.2,0.1-0.3l0.1,21.7c0,0.2-0.1,0.4-0.4,0.5
						c-0.1,0-0.1,0.1-0.2,0.1c0,0,0,0,0,0c0,0,0,0,0,0c0,0-0.1,0-0.1,0c0,0,0,0-0.1,0c0,0,0,0,0,0c0,0,0,0,0,0c0,0-0.1,0-0.1,0
						c0,0,0,0,0,0c0,0,0,0,0,0c0,0,0,0-0.1,0c0,0-0.1,0-0.1,0c0,0,0,0,0,0c0,0,0,0,0,0c0,0,0,0-0.1,0c0,0-0.1,0-0.1,0c0,0,0,0,0,0
						c0,0,0,0,0,0c0,0-0.1,0-0.1,0c0,0,0,0,0,0c0,0-0.1,0-0.1,0c0,0,0,0-0.1,0c0,0,0,0,0,0c-0.1,0-0.2-0.1-0.2-0.1l0,0
						c0,0,0,0-0.1,0c0,0-0.1,0-0.1-0.1c0,0,0,0,0,0c0,0-0.1-0.1-0.1-0.1c0,0,0,0,0,0l0,0c0,0,0,0,0,0c0,0,0,0,0-0.1c0,0,0,0,0,0
						c0,0,0,0,0,0c0,0,0,0,0,0c0,0,0,0,0-0.1l0,0l0,0L399.5,267.8z"/>
					<g>
						<path class="st40" d="M399.9,267.3c-0.5,0.3-0.5,0.7,0,1c0.5,0.3,1.2,0.3,1.7,0c0.5-0.3,0.5-0.7,0-1
							C401.1,267,400.3,267,399.9,267.3z"/>
					</g>
				</g>
			</g>
			<g>
				<linearGradient id="SVGID_21_" gradientUnits="userSpaceOnUse" x1="351.9302" y1="257.5065" x2="449.5719" y2="257.5065">
					<stop  offset="0.12" style="stop-color:#57C6F2"/>
					<stop  offset="1" style="stop-color:#4577BB"/>
				</linearGradient>
				<polygon class="st41" points="352.1,247.7 351.9,271.1 380.4,287.7 420.8,287.7 449.4,271.1 449.6,247.7 421.1,231.2 
					400.8,227.3 380.7,231.2 				"/>
			</g>
			<polygon class="st42" points="400.8,227.3 449.6,247.7 449.4,271.1 			"/>
			<polygon class="st42" points="420.8,287.7 400.8,227.3 380.4,287.7 			"/>
			<polygon class="st42" points="351.9,271.1 400.8,227.3 352.1,247.7 			"/>
			<g>
				<linearGradient id="SVGID_22_" gradientUnits="userSpaceOnUse" x1="441.4568" y1="323.2025" x2="443.683" y2="323.2025">
					<stop  offset="0.12" style="stop-color:#57C6F2"/>
					<stop  offset="1" style="stop-color:#4577BB"/>
				</linearGradient>
				<polygon class="st43" points="443.6,331.9 441.5,330.7 441.5,314.5 443.7,314.8 				"/>
				<g>
					<g class="st12">
						<linearGradient id="SVGID_23_" gradientUnits="userSpaceOnUse" x1="414.0891" y1="319.5376" x2="431.1964" y2="319.5376">
							<stop  offset="0.12" style="stop-color:#57C6F2"/>
							<stop  offset="1" style="stop-color:#4577BB"/>
						</linearGradient>
						<polygon class="st44" points="429.6,308.9 415.7,317 415.7,331.7 414.1,332.6 414.1,316.4 431.2,306.5 431.2,322.7 
							429.6,323.6 						"/>
						<g>
							<linearGradient id="SVGID_24_" gradientUnits="userSpaceOnUse" x1="411.9651" y1="311.7298" x2="443.6234" y2="311.7298">
								<stop  offset="0.12" style="stop-color:#57C6F2"/>
								<stop  offset="1" style="stop-color:#4577BB"/>
							</linearGradient>
							<polygon class="st45" points="426.6,320.9 443.6,311 429,302.6 412,312.5 							"/>
						</g>
						<linearGradient id="SVGID_25_" gradientUnits="userSpaceOnUse" x1="428.3393" y1="327.2952" x2="445.4492" y2="327.2952">
							<stop  offset="0.12" style="stop-color:#57C6F2"/>
							<stop  offset="1" style="stop-color:#4577BB"/>
						</linearGradient>
						<polygon class="st46" points="443.6,316.7 430.3,324.5 430.2,339.7 428.3,340.8 428.4,323.7 445.4,313.8 445.4,330.9 
							443.6,332 						"/>
						<g>
							<g class="st12">
								<g>
									<linearGradient id="SVGID_26_" gradientUnits="userSpaceOnUse" x1="428.9069" y1="306.4454" x2="447.6147" y2="306.4454">
										<stop  offset="0.12" style="stop-color:#57C6F2"/>
										<stop  offset="1" style="stop-color:#4577BB"/>
									</linearGradient>
									<polygon class="st47" points="428.9,316.1 444.1,307.3 447.6,296.8 432.4,305.6 									"/>
								</g>
							</g>
						</g>
						<g>
							<linearGradient id="SVGID_27_" gradientUnits="userSpaceOnUse" x1="428.3879" y1="310.8697" x2="450.5404" y2="310.8697">
								<stop  offset="0.12" style="stop-color:#57C6F2"/>
								<stop  offset="1" style="stop-color:#4577BB"/>
							</linearGradient>
							<polygon class="st48" points="428.4,323.7 445.4,313.8 450.5,298.1 433.5,308 							"/>
						</g>
						<g>
							<linearGradient id="SVGID_28_" gradientUnits="userSpaceOnUse" x1="431.572" y1="302.0367" x2="450.5404" y2="302.0367">
								<stop  offset="0.12" style="stop-color:#57C6F2"/>
								<stop  offset="1" style="stop-color:#4577BB"/>
							</linearGradient>
							<polygon class="st49" points="433.5,308 450.5,298.1 448.6,296.1 431.6,306 							"/>
						</g>
						<g>
							<linearGradient id="SVGID_29_" gradientUnits="userSpaceOnUse" x1="411.9116" y1="323.4197" x2="433.4792" y2="323.4197">
								<stop  offset="0.12" style="stop-color:#57C6F2"/>
								<stop  offset="1" style="stop-color:#4577BB"/>
							</linearGradient>
							<polygon class="st50" points="431.6,306 426.6,320.9 412,312.5 411.9,331.4 414.1,332.6 414.1,316.4 426.2,323.4 
								426.2,339.6 428.3,340.8 428.4,323.7 433.5,308 							"/>
						</g>
					</g>
				</g>
			</g>
			<g>
				<linearGradient id="SVGID_30_" gradientUnits="userSpaceOnUse" x1="357.5079" y1="323.2025" x2="359.7341" y2="323.2025">
					<stop  offset="0.12" style="stop-color:#57C6F2"/>
					<stop  offset="1" style="stop-color:#4577BB"/>
				</linearGradient>
				<polygon class="st51" points="357.6,331.9 359.7,330.7 359.7,314.5 357.5,314.8 				"/>
				<g>
					<g class="st12">
						<linearGradient id="SVGID_31_" gradientUnits="userSpaceOnUse" x1="369.9945" y1="319.5376" x2="387.1018" y2="319.5376">
							<stop  offset="0.12" style="stop-color:#57C6F2"/>
							<stop  offset="1" style="stop-color:#4577BB"/>
						</linearGradient>
						<polygon class="st52" points="371.6,308.9 385.4,317 385.5,331.7 387.1,332.6 387.1,316.4 370,306.5 370,322.7 371.6,323.6 
													"/>
						<g>
							<linearGradient id="SVGID_32_" gradientUnits="userSpaceOnUse" x1="357.5675" y1="311.7299" x2="389.2258" y2="311.7299">
								<stop  offset="0.12" style="stop-color:#57C6F2"/>
								<stop  offset="1" style="stop-color:#4577BB"/>
							</linearGradient>
							<polygon class="st53" points="374.6,320.9 357.6,311 372.2,302.6 389.2,312.5 							"/>
						</g>
						<linearGradient id="SVGID_33_" gradientUnits="userSpaceOnUse" x1="355.7419" y1="327.2952" x2="372.8517" y2="327.2952">
							<stop  offset="0.12" style="stop-color:#57C6F2"/>
							<stop  offset="1" style="stop-color:#4577BB"/>
						</linearGradient>
						<polygon class="st54" points="357.6,316.7 370.9,324.5 371,339.7 372.9,340.8 372.8,323.7 355.7,313.8 355.8,330.9 357.6,332 
													"/>
						<g>
							<g class="st12">
								<g>
									<linearGradient id="SVGID_34_" gradientUnits="userSpaceOnUse" x1="353.5764" y1="306.4454" x2="372.2842" y2="306.4454">
										<stop  offset="0.12" style="stop-color:#57C6F2"/>
										<stop  offset="1" style="stop-color:#4577BB"/>
									</linearGradient>
									<polygon class="st55" points="372.3,316.1 357.1,307.3 353.6,296.8 368.7,305.6 									"/>
								</g>
							</g>
						</g>
						<g>
							<linearGradient id="SVGID_35_" gradientUnits="userSpaceOnUse" x1="350.6506" y1="310.8697" x2="372.8031" y2="310.8697">
								<stop  offset="0.12" style="stop-color:#57C6F2"/>
								<stop  offset="1" style="stop-color:#4577BB"/>
							</linearGradient>
							<polygon class="st56" points="372.8,323.7 355.7,313.8 350.7,298.1 367.7,308 							"/>
						</g>
						<g>
							<linearGradient id="SVGID_36_" gradientUnits="userSpaceOnUse" x1="350.6506" y1="302.0367" x2="369.6189" y2="302.0367">
								<stop  offset="0.12" style="stop-color:#57C6F2"/>
								<stop  offset="1" style="stop-color:#4577BB"/>
							</linearGradient>
							<polygon class="st57" points="367.7,308 350.7,298.1 352.6,296.1 369.6,306 							"/>
						</g>
						<g>
							<linearGradient id="SVGID_37_" gradientUnits="userSpaceOnUse" x1="367.7119" y1="323.4197" x2="389.2793" y2="323.4197">
								<stop  offset="0.12" style="stop-color:#57C6F2"/>
								<stop  offset="1" style="stop-color:#4577BB"/>
							</linearGradient>
							<polygon class="st58" points="369.6,306 374.6,320.9 389.2,312.5 389.3,331.4 387.1,332.6 387.1,316.4 375,323.4 375,339.6 
								372.9,340.8 372.8,323.7 367.7,308 							"/>
						</g>
					</g>
				</g>
			</g>
		</g>
		<g>
			<g>
				<g class="st12">
					<g>
						<polygon class="st39" points="250.2,420.9 250.2,422.5 250.2,416.7 250.2,415.1 						"/>
					</g>
					<g>
						<polygon class="st10" points="226.1,420.9 226.1,422.5 233.1,426.6 233.1,425 						"/>
					</g>
					<g>
						<polygon class="st10" points="243.1,425 243.1,426.6 250.2,422.5 250.2,420.9 						"/>
					</g>
					<g>
						<polygon class="st11" points="233.1,425 233.1,426.6 243.1,426.6 243.1,425 						"/>
					</g>
					<g>
						<polygon class="st9" points="226.1,415.1 226.1,420.9 233.1,425 243.1,425 250.2,420.9 250.2,415.1 243.2,411 233.2,411 
													"/>
					</g>
				</g>
			</g>
			<g>
				<g class="st12">
					<path class="st8" d="M236.9,395.5c0,0,0,0.1,0,0.1l0,0c0,0,0,0.1,0.1,0.1c0,0,0,0,0,0c0,0,0.1,0.1,0.1,0.1c0,0,0.1,0,0.1,0.1
						c0,0,0,0,0.1,0.1c0.1,0,0.2,0.1,0.2,0.1c0,0,0.1,0,0.1,0c0,0,0.1,0,0.1,0c0,0,0.1,0,0.1,0c0,0,0,0,0,0c0.1,0,0.1,0,0.2,0
						c0,0,0,0,0,0c0.1,0,0.1,0,0.2,0c0,0,0,0,0,0c0.1,0,0.1,0,0.2,0c0,0,0,0,0,0c0.1,0,0.1,0,0.2-0.1c0,0,0,0,0,0
						c0.1,0,0.1-0.1,0.2-0.1c0.1-0.1,0.2-0.1,0.3-0.2c0.1-0.1,0.1-0.2,0.1-0.3l0.1,21.7c0,0.2-0.1,0.4-0.4,0.5
						c-0.1,0-0.1,0.1-0.2,0.1c0,0,0,0,0,0c0,0,0,0,0,0c0,0-0.1,0-0.1,0c0,0,0,0-0.1,0c0,0,0,0,0,0c0,0,0,0,0,0c0,0-0.1,0-0.1,0
						c0,0,0,0,0,0c0,0,0,0,0,0c0,0,0,0,0,0c0,0-0.1,0-0.1,0c0,0,0,0,0,0c0,0,0,0,0,0c0,0,0,0-0.1,0c0,0-0.1,0-0.1,0l0,0c0,0,0,0,0,0
						c0,0-0.1,0-0.1,0c0,0,0,0,0,0c0,0-0.1,0-0.1,0c0,0,0,0-0.1,0c0,0,0,0,0,0c-0.1,0-0.2-0.1-0.2-0.1c0,0,0,0,0,0c0,0,0,0-0.1,0
						c0,0-0.1,0-0.1-0.1c0,0,0,0,0,0c0,0-0.1-0.1-0.1-0.1c0,0,0,0,0,0c0,0,0,0,0,0c0,0,0,0,0,0c0,0,0-0.1,0-0.1c0,0,0,0,0,0
						c0,0,0,0,0,0c0,0,0,0,0,0c0,0,0,0,0-0.1l0,0l0,0L236.9,395.5z"/>
					<g>
						<path class="st40" d="M237.2,395c-0.5,0.3-0.5,0.7,0,1c0.5,0.3,1.2,0.3,1.7,0c0.5-0.3,0.5-0.7,0-1
							C238.5,394.7,237.7,394.7,237.2,395z"/>
					</g>
				</g>
			</g>
			<g>
				<g class="st12">
					<g>
						<polygon class="st39" points="257.5,399.5 257.5,402.1 257.5,392.8 257.5,390.2 						"/>
					</g>
					<g>
						<polygon class="st10" points="218.8,399.5 218.8,402.1 230.1,408.7 230.1,406 						"/>
					</g>
					<g>
						<polygon class="st10" points="246.1,406 246.1,408.7 257.5,402.1 257.5,399.5 						"/>
					</g>
					<g>
						<polygon class="st11" points="230.1,406 230.1,408.7 246.1,408.7 246.1,406 						"/>
					</g>
					<g>
						<polygon class="st9" points="218.8,390.2 218.8,399.5 230.1,406 246.1,406 257.5,399.5 257.5,390.2 246.2,383.6 230.2,383.6 
													"/>
					</g>
				</g>
			</g>
			<g>
				<g class="st12">
					<path class="st8" d="M236.9,373c0,0,0,0.1,0,0.1c0,0,0,0,0,0c0,0,0,0.1,0.1,0.1c0,0,0,0,0,0c0,0,0.1,0.1,0.1,0.1
						c0,0,0.1,0,0.1,0.1c0,0,0,0,0.1,0.1c0.1,0,0.2,0.1,0.2,0.1c0,0,0.1,0,0.1,0c0,0,0.1,0,0.1,0c0,0,0.1,0,0.1,0c0,0,0,0,0,0
						c0.1,0,0.1,0,0.2,0c0,0,0,0,0,0c0.1,0,0.1,0,0.2,0c0,0,0,0,0,0c0.1,0,0.1,0,0.2,0c0,0,0,0,0,0c0.1,0,0.1,0,0.2-0.1c0,0,0,0,0,0
						c0.1,0,0.1-0.1,0.2-0.1c0.1-0.1,0.2-0.1,0.3-0.2c0.1-0.1,0.1-0.2,0.1-0.3l0.1,21.7c0,0.2-0.1,0.4-0.4,0.5
						c-0.1,0-0.1,0.1-0.2,0.1c0,0,0,0,0,0c0,0,0,0,0,0c0,0-0.1,0-0.1,0c0,0,0,0-0.1,0c0,0,0,0,0,0c0,0,0,0,0,0c0,0-0.1,0-0.1,0
						c0,0,0,0,0,0c0,0,0,0,0,0c0,0,0,0-0.1,0c0,0-0.1,0-0.1,0c0,0,0,0,0,0c0,0,0,0,0,0c0,0,0,0-0.1,0c0,0-0.1,0-0.1,0c0,0,0,0,0,0
						c0,0,0,0,0,0c0,0-0.1,0-0.1,0c0,0,0,0,0,0c0,0-0.1,0-0.1,0c0,0,0,0-0.1,0c0,0,0,0,0,0c-0.1,0-0.2-0.1-0.2-0.1l0,0
						c0,0,0,0-0.1,0c0,0-0.1,0-0.1-0.1c0,0,0,0,0,0c0,0-0.1-0.1-0.1-0.1c0,0,0,0,0,0l0,0c0,0,0,0,0,0c0,0,0,0,0-0.1c0,0,0,0,0,0
						c0,0,0,0,0,0c0,0,0,0,0,0c0,0,0,0,0-0.1l0,0l0,0L236.9,373z"/>
					<g>
						<path class="st40" d="M237.3,372.5c-0.5,0.3-0.5,0.7,0,1c0.5,0.3,1.2,0.3,1.7,0c0.5-0.3,0.5-0.7,0-1
							C238.5,372.2,237.7,372.2,237.3,372.5z"/>
					</g>
				</g>
			</g>
			<g>
				<linearGradient id="SVGID_38_" gradientUnits="userSpaceOnUse" x1="189.3343" y1="362.7025" x2="286.9761" y2="362.7025">
					<stop  offset="0.12" style="stop-color:#57C6F2"/>
					<stop  offset="1" style="stop-color:#4577BB"/>
				</linearGradient>
				<polygon class="st59" points="189.5,352.9 189.3,376.3 217.8,392.9 258.2,392.9 286.9,376.3 287,352.9 258.5,336.4 238.2,332.5 
					218.1,336.4 				"/>
			</g>
			<polygon class="st42" points="238.2,332.5 287,352.9 286.9,376.3 			"/>
			<polygon class="st42" points="258.2,392.9 238.2,332.5 217.8,392.9 			"/>
			<polygon class="st42" points="189.3,376.3 238.2,332.5 189.5,352.9 			"/>
			<g>
				<linearGradient id="SVGID_39_" gradientUnits="userSpaceOnUse" x1="278.861" y1="428.3984" x2="281.0871" y2="428.3984">
					<stop  offset="0.12" style="stop-color:#57C6F2"/>
					<stop  offset="1" style="stop-color:#4577BB"/>
				</linearGradient>
				<polygon class="st60" points="281,437.1 278.9,435.9 278.9,419.7 281.1,420 				"/>
				<g>
					<g class="st12">
						<linearGradient id="SVGID_40_" gradientUnits="userSpaceOnUse" x1="251.4932" y1="424.7336" x2="268.6005" y2="424.7336">
							<stop  offset="0.12" style="stop-color:#57C6F2"/>
							<stop  offset="1" style="stop-color:#4577BB"/>
						</linearGradient>
						<polygon class="st61" points="267,414.1 253.2,422.2 253.1,436.9 251.5,437.8 251.5,421.6 268.6,411.7 268.6,427.9 267,428.8 
													"/>
						<g>
							<linearGradient id="SVGID_41_" gradientUnits="userSpaceOnUse" x1="249.3693" y1="416.9258" x2="281.0275" y2="416.9258">
								<stop  offset="0.12" style="stop-color:#57C6F2"/>
								<stop  offset="1" style="stop-color:#4577BB"/>
							</linearGradient>
							<polygon class="st62" points="264,426.1 281,416.2 266.4,407.8 249.4,417.7 							"/>
						</g>
						<linearGradient id="SVGID_42_" gradientUnits="userSpaceOnUse" x1="265.7434" y1="432.4912" x2="282.8534" y2="432.4912">
							<stop  offset="0.12" style="stop-color:#57C6F2"/>
							<stop  offset="1" style="stop-color:#4577BB"/>
						</linearGradient>
						<polygon class="st63" points="281,421.9 267.7,429.7 267.6,444.9 265.7,446 265.8,428.9 282.9,419 282.8,436.1 281,437.2 
													"/>
						<g>
							<g class="st12">
								<g>
									<linearGradient id="SVGID_43_" gradientUnits="userSpaceOnUse" x1="266.311" y1="411.6414" x2="285.0188" y2="411.6414">
										<stop  offset="0.12" style="stop-color:#57C6F2"/>
										<stop  offset="1" style="stop-color:#4577BB"/>
									</linearGradient>
									<polygon class="st64" points="266.3,421.3 281.5,412.5 285,402 269.9,410.8 									"/>
								</g>
							</g>
						</g>
						<g>
							<linearGradient id="SVGID_44_" gradientUnits="userSpaceOnUse" x1="265.7921" y1="416.0656" x2="287.9446" y2="416.0656">
								<stop  offset="0.12" style="stop-color:#57C6F2"/>
								<stop  offset="1" style="stop-color:#4577BB"/>
							</linearGradient>
							<polygon class="st65" points="265.8,428.9 282.9,419 287.9,403.3 270.9,413.2 							"/>
						</g>
						<g>
							<linearGradient id="SVGID_45_" gradientUnits="userSpaceOnUse" x1="268.9761" y1="407.2327" x2="287.9446" y2="407.2327">
								<stop  offset="0.12" style="stop-color:#57C6F2"/>
								<stop  offset="1" style="stop-color:#4577BB"/>
							</linearGradient>
							<polygon class="st66" points="270.9,413.2 287.9,403.3 286,401.3 269,411.2 							"/>
						</g>
						<g>
							<linearGradient id="SVGID_46_" gradientUnits="userSpaceOnUse" x1="249.3157" y1="428.6157" x2="270.8833" y2="428.6157">
								<stop  offset="0.12" style="stop-color:#57C6F2"/>
								<stop  offset="1" style="stop-color:#4577BB"/>
							</linearGradient>
							<polygon class="st67" points="269,411.2 264,426.1 249.4,417.7 249.3,436.5 251.5,437.8 251.5,421.6 263.6,428.5 
								263.6,444.8 265.7,446 265.8,428.9 270.9,413.2 							"/>
						</g>
					</g>
				</g>
			</g>
			<g>
				<linearGradient id="SVGID_47_" gradientUnits="userSpaceOnUse" x1="194.9121" y1="428.3984" x2="197.1382" y2="428.3984">
					<stop  offset="0.12" style="stop-color:#57C6F2"/>
					<stop  offset="1" style="stop-color:#4577BB"/>
				</linearGradient>
				<polygon class="st68" points="195,437.1 197.1,435.9 197.1,419.7 194.9,420 				"/>
				<g>
					<g class="st12">
						<linearGradient id="SVGID_48_" gradientUnits="userSpaceOnUse" x1="207.3987" y1="424.7336" x2="224.506" y2="424.7336">
							<stop  offset="0.12" style="stop-color:#57C6F2"/>
							<stop  offset="1" style="stop-color:#4577BB"/>
						</linearGradient>
						<polygon class="st69" points="209,414.1 222.8,422.2 222.9,436.9 224.5,437.8 224.5,421.6 207.4,411.7 207.4,427.9 209,428.8 
													"/>
						<g>
							<linearGradient id="SVGID_49_" gradientUnits="userSpaceOnUse" x1="194.9717" y1="416.9259" x2="226.6299" y2="416.9259">
								<stop  offset="0.12" style="stop-color:#57C6F2"/>
								<stop  offset="1" style="stop-color:#4577BB"/>
							</linearGradient>
							<polygon class="st70" points="212,426.1 195,416.2 209.6,407.8 226.6,417.7 							"/>
						</g>
						<linearGradient id="SVGID_50_" gradientUnits="userSpaceOnUse" x1="193.146" y1="432.4912" x2="210.2559" y2="432.4912">
							<stop  offset="0.12" style="stop-color:#57C6F2"/>
							<stop  offset="1" style="stop-color:#4577BB"/>
						</linearGradient>
						<polygon class="st71" points="195,421.9 208.3,429.7 208.4,444.9 210.3,446 210.2,428.9 193.1,419 193.2,436.1 195,437.2 
													"/>
						<g>
							<g class="st12">
								<g>
									<linearGradient id="SVGID_51_" gradientUnits="userSpaceOnUse" x1="190.9805" y1="411.6414" x2="209.6883" y2="411.6414">
										<stop  offset="0.12" style="stop-color:#57C6F2"/>
										<stop  offset="1" style="stop-color:#4577BB"/>
									</linearGradient>
									<polygon class="st72" points="209.7,421.3 194.5,412.5 191,402 206.1,410.8 									"/>
								</g>
							</g>
						</g>
						<g>
							<linearGradient id="SVGID_52_" gradientUnits="userSpaceOnUse" x1="188.0547" y1="416.0656" x2="210.2073" y2="416.0656">
								<stop  offset="0.12" style="stop-color:#57C6F2"/>
								<stop  offset="1" style="stop-color:#4577BB"/>
							</linearGradient>
							<polygon class="st73" points="210.2,428.9 193.1,419 188.1,403.3 205.1,413.2 							"/>
						</g>
						<g>
							<linearGradient id="SVGID_53_" gradientUnits="userSpaceOnUse" x1="188.0547" y1="407.2327" x2="207.0231" y2="407.2327">
								<stop  offset="0.12" style="stop-color:#57C6F2"/>
								<stop  offset="1" style="stop-color:#4577BB"/>
							</linearGradient>
							<polygon class="st74" points="205.1,413.2 188.1,403.3 190,401.3 207,411.2 							"/>
						</g>
						<g>
							<linearGradient id="SVGID_54_" gradientUnits="userSpaceOnUse" x1="205.116" y1="428.6157" x2="226.6835" y2="428.6157">
								<stop  offset="0.12" style="stop-color:#57C6F2"/>
								<stop  offset="1" style="stop-color:#4577BB"/>
							</linearGradient>
							<polygon class="st75" points="207,411.2 212,426.1 226.6,417.7 226.7,436.5 224.5,437.8 224.5,421.6 212.4,428.5 
								212.4,444.8 210.3,446 210.2,428.9 205.1,413.2 							"/>
						</g>
					</g>
				</g>
			</g>
		</g>
	</g>
</g>
<g id="koin">
	<g>
		<g id="koin-1">
			<path class="st76" d="M344.2,83.5c-3.9-3.6-9.3-6.4-14.4-5.2c-4.6,1.1-9.7,6.4-6.9,15.4c5.7,18.5,19.2,16.7,23,14.7
				C350.7,105.9,355.2,93.7,344.2,83.5"/>
			<path class="st77" d="M346,81.4c-3.9-3.6-9.3-6.4-14.4-5.2c-4.6,1.1-9.7,6.4-6.9,15.4c5.7,18.5,19.2,16.7,23,14.7
				C352.5,103.8,357,91.5,346,81.4"/>
			<path class="st76" d="M341.7,97.2l0.5,1.5l-1.2,0.4l-0.5-1.5c-1.9,0.5-3.7-0.1-4.8-1.5l1.8-2.2c0.6,0.7,1.3,1.1,2.1,0.9l-0.8-2.4
				c-0.1,0-0.2,0-0.2,0c-1.7-0.1-3.7-0.4-4.4-2.8c-0.8-2.3,0.5-4,2.2-4.7l-0.5-1.5L337,83l0.5,1.6c1.5-0.3,3,0.1,4.1,1.4l-1.8,2.1
				c-0.4-0.5-0.9-0.8-1.4-0.8l0.8,2.4c1.7,0.2,3.8,0.1,4.7,2.6C344.6,94.5,343.6,96.3,341.7,97.2 M337.8,89.5l-0.6-1.8
				c-0.4,0.3-0.6,0.7-0.4,1.1C336.9,89.1,337.1,89.4,337.8,89.5 M341.2,93.3c-0.1-0.4-0.5-0.6-1.1-0.7l0.6,1.9
				C341.3,94.1,341.3,93.6,341.2,93.3"/>
			<path class="st78" d="M342,96.2l0.5,1.5l-1.2,0.4l-0.5-1.5c-2,0.5-3.8,0-4.9-1.5l1.9-2.2c0.6,0.7,1.3,1,2.1,0.9l-0.8-2.4
				c-0.1,0-0.2,0-0.3,0c-1.7-0.1-3.8-0.4-4.5-2.7c-0.7-2.2,0.6-3.9,2.3-4.7l-0.5-1.5l1.2-0.4l0.5,1.5c1.5-0.3,3,0.1,4.2,1.4
				l-1.9,2.1c-0.4-0.5-0.9-0.8-1.4-0.8l0.8,2.3c1.7,0.1,3.9,0,4.7,2.5C345.1,93.5,344,95.3,342,96.2 M338.2,88.7l-0.6-1.8
				c-0.5,0.3-0.6,0.7-0.5,1.1C337.2,88.3,337.5,88.5,338.2,88.7 M341.6,92.3c-0.1-0.4-0.5-0.6-1.1-0.7l0.6,1.8
				C341.7,93.1,341.7,92.7,341.6,92.3"/>
			<path class="st78" d="M347,102.8c0,0,0.1-0.2,0.2-0.4c0-0.1,0.1-0.1,0.2-0.2c0.1-0.1,0.1-0.1,0.2-0.2c0.1-0.1,0.1-0.2,0.2-0.2
				c0,0,0.1-0.1,0.1-0.1c0,0,0.1-0.1,0.1-0.1c0.1-0.1,0.2-0.2,0.2-0.3c0.1-0.1,0.2-0.2,0.2-0.4c0.2-0.3,0.3-0.6,0.5-0.9
				c0.3-0.6,0.6-1.4,0.9-2.3c0.5-1.7,0.6-3.9-0.1-6.2c0-0.1,0-0.1-0.1-0.2c0-0.1,0-0.1-0.1-0.2c0-0.1-0.1-0.3-0.1-0.4
				c-0.1-0.1-0.1-0.3-0.2-0.4c0-0.1-0.1-0.1-0.1-0.2l-0.1-0.2c-0.2-0.6-0.5-1.1-0.8-1.7c-0.3-0.6-0.7-1.1-1.1-1.7
				c-0.4-0.5-0.8-1.1-1.3-1.6c-0.9-1-1.9-2-2.9-2.8c-0.5-0.4-1-0.8-1.5-1.1c-0.5-0.3-1.1-0.6-1.6-0.9c-0.5-0.3-1.1-0.5-1.6-0.6
				c-0.3-0.1-0.5-0.2-0.8-0.2c-0.1,0-0.3-0.1-0.4-0.1c-0.1,0-0.1,0-0.2,0c-0.1,0-0.1,0-0.2,0c-0.5-0.1-1-0.1-1.5-0.1
				c-0.2,0-0.5,0-0.7,0.1c-0.1,0-0.2,0-0.3,0c-0.1,0-0.2,0-0.3,0.1c-0.9,0.2-1.6,0.5-2.3,0.8c-0.6,0.3-1.1,0.7-1.5,1
				c-0.1,0.1-0.2,0.2-0.3,0.2c-0.1,0.1-0.2,0.2-0.2,0.2c-0.1,0.1-0.1,0.1-0.2,0.2c-0.1,0.1-0.1,0.1-0.2,0.2
				c-0.2,0.2-0.3,0.3-0.3,0.3c0,0,0-0.2,0.1-0.4c0-0.1,0.1-0.1,0.1-0.2c0-0.1,0.1-0.2,0.2-0.2c0.1-0.1,0.1-0.2,0.2-0.3
				c0.1-0.1,0.2-0.2,0.2-0.3c0.4-0.4,0.8-0.9,1.5-1.3c0.7-0.4,1.5-0.8,2.4-1c0.1,0,0.2-0.1,0.4-0.1c0.1,0,0.2,0,0.4-0.1
				c0.3-0.1,0.5-0.1,0.8-0.1c0.5,0,1.1,0,1.7,0c0.1,0,0.1,0,0.2,0c0.1,0,0.1,0,0.2,0c0.1,0,0.3,0,0.4,0.1c0.3,0.1,0.6,0.1,0.9,0.2
				c0.6,0.2,1.2,0.4,1.8,0.7c0.6,0.3,1.2,0.6,1.7,0.9c0.6,0.4,1.1,0.8,1.7,1.2c1.1,0.9,2.1,1.9,3.1,3c0.5,0.6,0.9,1.1,1.3,1.7
				c0.4,0.6,0.8,1.2,1.1,1.8c0.3,0.6,0.6,1.2,0.9,1.9c0,0.1,0.1,0.2,0.1,0.2c0,0.1,0.1,0.2,0.1,0.2c0.1,0.2,0.1,0.3,0.2,0.5
				c0,0.2,0.1,0.3,0.1,0.5c0,0.1,0,0.2,0.1,0.2c0,0.1,0,0.2,0.1,0.2c0,0.2,0.1,0.3,0.1,0.5c0,0.2,0.1,0.3,0.1,0.5
				c0.1,0.3,0.1,0.6,0.1,0.9c0,0.2,0,0.3,0,0.5c0,0.1,0,0.3,0,0.4v0.4c0,0.1,0,0.3,0,0.4c-0.1,1.1-0.3,2.2-0.6,3.1
				c-0.3,0.9-0.7,1.7-1.1,2.4c-0.2,0.3-0.4,0.6-0.6,0.9c-0.1,0.1-0.2,0.3-0.3,0.4c-0.1,0.1-0.2,0.2-0.3,0.3l-0.1,0.1
				c0,0-0.1,0.1-0.1,0.1c-0.1,0.1-0.2,0.1-0.3,0.2c-0.1,0.1-0.2,0.1-0.2,0.2c-0.1,0-0.1,0.1-0.2,0.1
				C347.1,102.7,347,102.8,347,102.8"/>
			<path class="st76" d="M345.4,103.5c0,0-0.1,0.1-0.2,0.2c-0.1,0-0.2,0.1-0.3,0.2c-0.1,0.1-0.3,0.1-0.4,0.2
				c-0.2,0.1-0.4,0.1-0.6,0.2c-0.2,0.1-0.4,0.1-0.7,0.2c-0.5,0.1-1.1,0.2-1.7,0.2c-1.3,0-2.9-0.2-4.5-0.9c-0.8-0.3-1.6-0.8-2.4-1.3
				c-0.8-0.5-1.5-1.2-2.2-1.9c-1.4-1.4-2.4-3.1-3.1-4.6c-0.7-1.5-1.2-3-1.4-4.2c-0.3-1.2-0.4-2.2-0.5-3c-0.1-0.7,0-1.1,0-1.1
				c0.1,0,0.2,0.4,0.4,1c0.2,0.7,0.5,1.6,0.9,2.8c0.4,1.2,0.9,2.5,1.6,4c0.7,1.4,1.7,2.9,3,4.3c0.6,0.7,1.3,1.3,2,1.8
				c0.7,0.5,1.4,0.9,2.1,1.3c1.4,0.7,2.8,1,4,1c0.6,0,1.1,0,1.6,0c0.2,0,0.5,0,0.7-0.1c0.2,0,0.4-0.1,0.6-0.1c0.2,0,0.3-0.1,0.5-0.1
				c0.1,0,0.2,0,0.3-0.1C345.3,103.4,345.4,103.4,345.4,103.5"/>
			<path class="st79" d="M347.8,82.8c0,0-0.1,0-0.2-0.2c-0.1-0.1-0.1-0.1-0.2-0.2c0,0-0.1-0.1-0.1-0.1c0-0.1-0.1-0.1-0.2-0.2
				c-0.1-0.1-0.2-0.2-0.4-0.4c-0.1-0.1-0.3-0.3-0.4-0.4c-0.2-0.2-0.3-0.3-0.5-0.5c-0.2-0.2-0.4-0.3-0.6-0.5
				c-0.4-0.3-0.9-0.7-1.5-1.1c-0.6-0.3-1.2-0.7-1.8-1c-0.3-0.2-0.7-0.3-1-0.5c-0.2-0.1-0.4-0.1-0.5-0.2c-0.1,0-0.2-0.1-0.3-0.1
				c-0.1,0-0.2-0.1-0.3-0.1c-0.2-0.1-0.4-0.1-0.6-0.2c-0.2-0.1-0.4-0.1-0.6-0.2c-0.4-0.1-0.8-0.2-1.2-0.3c-0.8-0.2-1.6-0.3-2.4-0.3
				c-0.8,0-1.6,0.1-2.3,0.2c-0.2,0-0.4,0.1-0.5,0.1c-0.1,0-0.2,0-0.3,0.1c-0.1,0-0.2,0-0.2,0.1c-0.2,0-0.3,0.1-0.5,0.1
				c-0.2,0.1-0.3,0.1-0.5,0.2c-0.1,0-0.2,0.1-0.2,0.1c-0.1,0-0.1,0.1-0.2,0.1c-0.1,0.1-0.3,0.1-0.4,0.2c-0.1,0.1-0.3,0.1-0.4,0.2
				c-0.1,0.1-0.3,0.1-0.4,0.2c-0.1,0.1-0.2,0.1-0.3,0.2c-0.1,0-0.1,0.1-0.2,0.1c-0.1,0-0.1,0.1-0.2,0.1c-0.1,0.1-0.2,0.1-0.3,0.2
				c-0.1,0.1-0.2,0.1-0.3,0.2c-0.2,0.1-0.3,0.3-0.5,0.4c-0.1,0.1-0.3,0.2-0.4,0.4c-0.1,0.1-0.1,0.1-0.2,0.2c0,0.1-0.1,0.1-0.1,0.1
				c-0.1,0.1-0.2,0.2-0.2,0.2c-0.1,0.1-0.2,0.2-0.2,0.2c0,0,0-0.1,0.1-0.2c0-0.1,0.1-0.2,0.2-0.3c0-0.1,0.1-0.1,0.1-0.2
				c0-0.1,0.1-0.1,0.1-0.2c0.1-0.1,0.2-0.3,0.3-0.4c0.1-0.1,0.3-0.3,0.5-0.4c0.1-0.1,0.2-0.2,0.3-0.2c0.1-0.1,0.2-0.2,0.3-0.2
				c0.1,0,0.1-0.1,0.2-0.1c0.1,0,0.1-0.1,0.2-0.1c0.1-0.1,0.2-0.2,0.3-0.2c0.1-0.1,0.2-0.2,0.4-0.2c0.1-0.1,0.3-0.2,0.4-0.2
				c0.1-0.1,0.3-0.1,0.4-0.2c0.1,0,0.1-0.1,0.2-0.1c0.1,0,0.2-0.1,0.2-0.1c0.2-0.1,0.3-0.1,0.5-0.2c0.2-0.1,0.3-0.1,0.5-0.2
				c0.1,0,0.2-0.1,0.3-0.1c0.1,0,0.2,0,0.3-0.1c0.2,0,0.4-0.1,0.5-0.1c0.7-0.2,1.5-0.2,2.4-0.2c0.8,0,1.7,0.1,2.6,0.3
				c0.4,0.1,0.8,0.2,1.3,0.3c0.2,0.1,0.4,0.1,0.6,0.2c0.2,0.1,0.4,0.1,0.6,0.2c0.1,0,0.2,0.1,0.3,0.1c0.1,0,0.2,0.1,0.3,0.1
				c0.2,0.1,0.4,0.2,0.6,0.2c0.4,0.2,0.7,0.3,1,0.5c0.7,0.3,1.3,0.7,1.8,1.1c0.5,0.4,1,0.8,1.5,1.2c0.2,0.2,0.4,0.4,0.6,0.6
				c0.2,0.2,0.4,0.3,0.5,0.5c0.1,0.2,0.3,0.3,0.4,0.5c0.1,0.2,0.2,0.3,0.3,0.4c0,0.1,0.1,0.1,0.1,0.2c0,0.1,0.1,0.1,0.1,0.2
				c0.1,0.1,0.1,0.2,0.2,0.3C347.8,82.7,347.8,82.8,347.8,82.8"/>
			<path class="st79" d="M341.6,85c-0.1,0.1-0.9-0.4-1.9-0.7c-1-0.3-1.9-0.4-1.9-0.6c0-0.1,0.2-0.2,0.6-0.2c0.2,0,0.4,0,0.7,0
				c0.3,0,0.5,0.1,0.8,0.2c0.3,0.1,0.5,0.2,0.8,0.3c0.2,0.1,0.4,0.3,0.6,0.4C341.6,84.8,341.7,85,341.6,85"/>
			<path class="st79" d="M337.9,84c-0.1,0.1-0.3,0-0.4-0.1c-0.2-0.1-0.3-0.3-0.4-0.6c-0.1-0.3-0.1-0.5,0-0.7
				c0.1-0.2,0.2-0.3,0.3-0.3c0.1,0,0.2,0.1,0.3,0.2c0.1,0.1,0.2,0.3,0.2,0.5c0.1,0.2,0.1,0.4,0.1,0.6C338,83.8,338,83.9,337.9,84"/>
			<path class="st79" d="M343.8,90.7c0,0-0.1-0.1-0.2-0.2c-0.1-0.1-0.2-0.3-0.5-0.5c-0.2-0.2-0.5-0.3-0.9-0.5
				c-0.4-0.1-0.8-0.3-1.3-0.4c-0.9-0.2-1.8-0.3-2.4-0.4c-0.6-0.1-1-0.2-1-0.3c0-0.1,0.4-0.1,1-0.1c0.6,0,1.5,0,2.5,0.3
				c0.5,0.1,0.9,0.3,1.3,0.5c0.4,0.2,0.7,0.4,1,0.7c0.2,0.3,0.4,0.5,0.4,0.7C343.8,90.6,343.8,90.7,343.8,90.7"/>
		</g>
		<g id="koin-2">
			<path class="st76" d="M80.2,41.9c-5-4.6-12.1-8.4-18.7-6.8c-5.9,1.4-12.7,8.3-9,20.1c7.5,24.1,24.9,21.7,30,19.1
				C88.6,71,94.5,55.1,80.2,41.9"/>
			<path class="st77" d="M82.6,39.2c-5-4.6-12.1-8.4-18.7-6.8c-5.9,1.4-12.7,8.3-9,20.1c7.5,24.1,24.9,21.7,30,19.1
				C91.1,68.3,96.9,52.3,82.6,39.2"/>
			<path class="st76" d="M76.9,59.7l0.7,2l-1.5,0.5l-0.7-2c-2.5,0.6-4.8-0.1-6.3-2l2.4-2.8c0.8,0.9,1.7,1.4,2.7,1.2l-1-3.1
				c-0.1,0-0.2,0-0.3,0c-2.1-0.2-4.8-0.5-5.8-3.6c-1-3,0.6-5.2,2.9-6.2l-0.7-2l1.5-0.5l0.7,2c1.9-0.4,3.9,0.2,5.4,1.9l-2.3,2.8
				c-0.5-0.7-1.1-1-1.8-1l1,3.1c2.2,0.2,5,0.1,6.1,3.4C80.7,56.2,79.4,58.5,76.9,59.7 M71.9,49.7l-0.8-2.4c-0.6,0.4-0.8,0.9-0.6,1.5
				C70.7,49.2,71,49.5,71.9,49.7 M76.3,54.6c-0.2-0.6-0.6-0.8-1.4-0.9l0.8,2.4C76.4,55.6,76.5,55.1,76.3,54.6"/>
			<path class="st78" d="M77.4,58.4l0.7,2l-1.6,0.5l-0.6-1.9c-2.6,0.7-4.9,0-6.4-1.9l2.5-2.8c0.8,0.9,1.7,1.3,2.7,1.2l-1-3.1
				c-0.1,0-0.2,0-0.3,0c-2.2-0.1-4.9-0.5-5.9-3.4c-1-2.9,0.7-5.1,3-6.1l-0.6-1.9l1.6-0.5l0.7,2c2-0.4,3.9,0.1,5.5,1.8l-2.4,2.8
				c-0.6-0.7-1.1-1-1.9-1l1,3c2.2,0.2,5.1,0,6.2,3.3C81.3,54.9,79.9,57.2,77.4,58.4 M72.4,48.6l-0.8-2.3c-0.6,0.4-0.8,0.9-0.6,1.4
				C71.2,48.1,71.5,48.4,72.4,48.6 M76.8,53.4c-0.2-0.6-0.6-0.8-1.4-0.9l0.8,2.4C76.9,54.4,77,53.8,76.8,53.4"/>
			<path class="st78" d="M83.8,66.9c0,0,0.1-0.2,0.3-0.5c0.1-0.1,0.1-0.1,0.2-0.2c0.1-0.1,0.1-0.2,0.2-0.3c0.1-0.1,0.2-0.2,0.3-0.3
				c0-0.1,0.1-0.1,0.1-0.2c0-0.1,0.1-0.1,0.1-0.2c0.1-0.1,0.2-0.3,0.3-0.4c0.1-0.1,0.2-0.3,0.3-0.5c0.2-0.3,0.4-0.7,0.7-1.1
				c0.4-0.8,0.8-1.8,1.1-3c0.6-2.3,0.8-5.1-0.1-8.1c0-0.1,0-0.2-0.1-0.3c0-0.1-0.1-0.2-0.1-0.3c-0.1-0.2-0.1-0.4-0.2-0.6
				c-0.1-0.2-0.1-0.4-0.2-0.6c0-0.1-0.1-0.2-0.1-0.3L86.7,50c-0.3-0.8-0.7-1.5-1.1-2.2c-0.4-0.7-0.9-1.5-1.4-2.2
				c-0.5-0.7-1.1-1.4-1.7-2.1c-1.2-1.4-2.5-2.6-3.8-3.7c-0.7-0.5-1.3-1-2-1.5c-0.7-0.4-1.4-0.8-2.1-1.2c-0.7-0.3-1.4-0.6-2.1-0.8
				c-0.3-0.1-0.7-0.2-1-0.3c-0.2,0-0.3-0.1-0.5-0.1c-0.1,0-0.2,0-0.3,0c-0.1,0-0.2,0-0.3,0c-0.7-0.1-1.3-0.1-2-0.1
				c-0.3,0-0.6,0-0.9,0.1c-0.2,0-0.3,0-0.4,0.1c-0.1,0-0.3,0.1-0.4,0.1c-1.1,0.2-2.1,0.6-3,1c-0.8,0.4-1.5,0.9-2,1.3
				c-0.1,0.1-0.2,0.2-0.3,0.3c-0.1,0.1-0.2,0.2-0.3,0.3c-0.1,0.1-0.2,0.2-0.3,0.3c-0.1,0.1-0.1,0.2-0.2,0.2
				c-0.2,0.3-0.4,0.4-0.4,0.4c0,0,0-0.2,0.2-0.5c0-0.1,0.1-0.2,0.1-0.3c0.1-0.1,0.1-0.2,0.2-0.3c0.1-0.1,0.2-0.2,0.3-0.4
				c0.1-0.1,0.2-0.2,0.3-0.4c0.5-0.5,1.1-1.1,2-1.7c0.9-0.5,1.9-1,3.2-1.3c0.2,0,0.3-0.1,0.5-0.1c0.2,0,0.3-0.1,0.5-0.1
				c0.3-0.1,0.7-0.1,1-0.1c0.7,0,1.4-0.1,2.2,0c0.1,0,0.2,0,0.3,0c0.1,0,0.2,0,0.3,0c0.2,0,0.4,0.1,0.6,0.1c0.4,0.1,0.8,0.2,1.2,0.3
				c0.8,0.2,1.5,0.5,2.3,0.9c0.8,0.4,1.5,0.8,2.3,1.2c0.7,0.5,1.5,1,2.2,1.6c1.4,1.1,2.7,2.4,4,3.9c0.6,0.7,1.2,1.5,1.7,2.2
				c0.5,0.8,1,1.5,1.5,2.3c0.4,0.8,0.8,1.6,1.1,2.4c0,0.1,0.1,0.2,0.1,0.3c0,0.1,0.1,0.2,0.1,0.3c0.1,0.2,0.1,0.4,0.2,0.6
				c0.1,0.2,0.1,0.4,0.2,0.6c0,0.1,0.1,0.2,0.1,0.3c0,0.1,0,0.2,0.1,0.3c0,0.2,0.1,0.4,0.1,0.6c0,0.2,0.1,0.4,0.1,0.6
				c0.1,0.4,0.1,0.8,0.2,1.2c0,0.2,0,0.4,0,0.6c0,0.2,0,0.4,0,0.6V56c0,0.2,0,0.4,0,0.6c-0.1,1.5-0.3,2.9-0.7,4.1
				c-0.4,1.2-0.9,2.2-1.4,3.1c-0.3,0.4-0.5,0.8-0.8,1.1c-0.1,0.2-0.3,0.3-0.4,0.5c-0.1,0.1-0.3,0.3-0.4,0.4l-0.2,0.2
				c-0.1,0.1-0.1,0.1-0.2,0.2c-0.1,0.1-0.2,0.2-0.3,0.3c-0.1,0.1-0.2,0.2-0.3,0.2c-0.1,0.1-0.2,0.1-0.3,0.2
				C84,66.9,83.9,67,83.8,66.9"/>
			<path class="st76" d="M81.8,67.9c0,0.1-0.1,0.1-0.3,0.3c-0.1,0.1-0.2,0.1-0.4,0.2c-0.2,0.1-0.4,0.2-0.6,0.3
				c-0.2,0.1-0.5,0.2-0.7,0.3c-0.3,0.1-0.6,0.2-0.9,0.2c-0.7,0.1-1.4,0.2-2.3,0.2c-1.7,0-3.7-0.3-5.8-1.1c-1-0.4-2.1-1-3.1-1.7
				c-1-0.7-2-1.5-2.8-2.5c-1.8-1.9-3.1-4-4-6c-0.9-2-1.5-3.9-1.9-5.5c-0.4-1.6-0.6-2.9-0.6-3.8c-0.1-0.9,0-1.4,0.1-1.4
				c0.1,0,0.3,0.5,0.5,1.3c0.3,0.9,0.6,2.1,1.1,3.7c0.5,1.5,1.2,3.3,2.1,5.2c0.9,1.9,2.2,3.8,3.8,5.5c0.8,0.9,1.7,1.6,2.6,2.3
				c0.9,0.7,1.8,1.2,2.8,1.6c1.9,0.9,3.7,1.2,5.3,1.4c0.8,0.1,1.5,0,2.1,0c0.3,0,0.6-0.1,0.9-0.1c0.3,0,0.5-0.1,0.7-0.1
				c0.2,0,0.4-0.1,0.6-0.1c0.2,0,0.3-0.1,0.4-0.1C81.6,67.8,81.7,67.8,81.8,67.9"/>
			<path class="st79" d="M84.9,41c0,0-0.1-0.1-0.3-0.2c-0.1-0.1-0.2-0.2-0.3-0.3c0-0.1-0.1-0.1-0.2-0.2c-0.1-0.1-0.1-0.1-0.2-0.2
				c-0.1-0.1-0.3-0.3-0.5-0.5c-0.2-0.2-0.4-0.4-0.6-0.6c-0.2-0.2-0.4-0.4-0.7-0.6c-0.2-0.2-0.5-0.4-0.8-0.7
				c-0.6-0.5-1.2-0.9-1.9-1.4c-0.7-0.5-1.5-0.9-2.4-1.3c-0.4-0.2-0.9-0.4-1.3-0.6c-0.2-0.1-0.5-0.2-0.7-0.3c-0.1,0-0.2-0.1-0.4-0.1
				c-0.1,0-0.2-0.1-0.4-0.1c-0.2-0.1-0.5-0.2-0.7-0.3c-0.3-0.1-0.5-0.2-0.8-0.2c-0.5-0.1-1-0.3-1.6-0.4c-1.1-0.2-2.1-0.4-3.2-0.4
				c-1,0-2,0.1-3,0.3c-0.2,0-0.5,0.1-0.7,0.2c-0.1,0-0.2,0-0.3,0.1c-0.1,0-0.2,0.1-0.3,0.1c-0.2,0.1-0.4,0.1-0.6,0.2
				c-0.2,0.1-0.4,0.1-0.6,0.2c-0.1,0-0.2,0.1-0.3,0.1c-0.1,0-0.2,0.1-0.3,0.1c-0.2,0.1-0.4,0.2-0.5,0.2c-0.2,0.1-0.3,0.2-0.5,0.3
				c-0.2,0.1-0.3,0.2-0.5,0.3c-0.2,0.1-0.3,0.2-0.4,0.3c-0.1,0-0.1,0.1-0.2,0.1c-0.1,0-0.1,0.1-0.2,0.1c-0.1,0.1-0.3,0.2-0.4,0.3
				c-0.1,0.1-0.2,0.2-0.4,0.3c-0.2,0.2-0.4,0.4-0.6,0.5c-0.2,0.2-0.3,0.3-0.5,0.5c-0.1,0.1-0.1,0.1-0.2,0.2
				c-0.1,0.1-0.1,0.1-0.2,0.2c-0.1,0.1-0.2,0.2-0.3,0.3c-0.2,0.2-0.2,0.2-0.3,0.2c0,0,0-0.1,0.1-0.3c0.1-0.1,0.1-0.2,0.2-0.3
				c0-0.1,0.1-0.1,0.1-0.2c0.1-0.1,0.1-0.1,0.2-0.2c0.1-0.2,0.3-0.3,0.5-0.5c0.2-0.2,0.4-0.4,0.6-0.6c0.1-0.1,0.2-0.2,0.3-0.3
				c0.1-0.1,0.2-0.2,0.4-0.3c0.1-0.1,0.1-0.1,0.2-0.2c0.1,0,0.1-0.1,0.2-0.1c0.1-0.1,0.3-0.2,0.5-0.3c0.2-0.1,0.3-0.2,0.5-0.3
				c0.2-0.1,0.3-0.2,0.5-0.3c0.2-0.1,0.4-0.2,0.6-0.3c0.1,0,0.2-0.1,0.3-0.1c0.1,0,0.2-0.1,0.3-0.1c0.2-0.1,0.4-0.2,0.6-0.2
				c0.2-0.1,0.4-0.1,0.7-0.2c0.1,0,0.2-0.1,0.3-0.1c0.1,0,0.2-0.1,0.4-0.1c0.2-0.1,0.5-0.1,0.7-0.2c1-0.2,2-0.3,3.1-0.3
				c1.1,0,2.2,0.1,3.3,0.4c0.6,0.1,1.1,0.3,1.6,0.4c0.3,0.1,0.5,0.2,0.8,0.2c0.3,0.1,0.5,0.2,0.8,0.3c0.1,0,0.3,0.1,0.4,0.1
				c0.1,0,0.2,0.1,0.4,0.2c0.2,0.1,0.5,0.2,0.7,0.3c0.5,0.2,0.9,0.4,1.4,0.7c0.9,0.4,1.7,1,2.4,1.4c0.7,0.5,1.4,1,1.9,1.5
				c0.3,0.2,0.5,0.5,0.8,0.7c0.2,0.2,0.5,0.5,0.7,0.7c0.2,0.2,0.4,0.4,0.5,0.6c0.2,0.2,0.3,0.4,0.4,0.6c0.1,0.1,0.1,0.2,0.2,0.2
				c0,0.1,0.1,0.2,0.1,0.2c0.1,0.1,0.2,0.3,0.2,0.3C84.8,40.9,84.9,41,84.9,41"/>
			<path class="st79" d="M76.9,43.9c-0.1,0.2-1.1-0.5-2.5-0.9c-1.3-0.4-2.5-0.5-2.5-0.7c0-0.1,0.3-0.2,0.8-0.3c0.3,0,0.6,0,0.9,0
				c0.3,0,0.7,0.1,1.1,0.2c0.4,0.1,0.7,0.3,1,0.4c0.3,0.2,0.5,0.3,0.7,0.5C76.8,43.5,76.9,43.8,76.9,43.9"/>
			<path class="st79" d="M72,42.5c-0.1,0.1-0.3,0.1-0.5-0.1c-0.2-0.2-0.4-0.4-0.5-0.8c-0.1-0.3-0.1-0.7,0-0.9
				c0.1-0.2,0.2-0.4,0.4-0.4c0.2,0,0.3,0.1,0.4,0.3c0.1,0.2,0.2,0.4,0.3,0.7c0.1,0.3,0.1,0.5,0.1,0.7C72.2,42.2,72.1,42.4,72,42.5"
				/>
			<path class="st79" d="M79.6,51.2c-0.1,0-0.1-0.1-0.2-0.3c-0.1-0.2-0.3-0.4-0.6-0.6c-0.3-0.2-0.7-0.4-1.2-0.6
				c-0.5-0.2-1-0.4-1.6-0.5c-1.2-0.3-2.3-0.4-3.1-0.6c-0.8-0.1-1.3-0.3-1.3-0.4c0-0.1,0.5-0.2,1.4-0.2c0.8,0,2,0.1,3.3,0.4
				c0.6,0.2,1.2,0.4,1.7,0.6c0.5,0.2,1,0.6,1.3,0.9c0.3,0.3,0.5,0.7,0.5,0.9C79.7,51.1,79.7,51.2,79.6,51.2"/>
		</g>
		<g id="koin-3">
			<path class="st76" d="M144.4,389.3c-3.3-3-7.8-5.4-12.1-4.4c-3.8,0.9-8.2,5.4-5.9,13c4.8,15.6,16.2,14.1,19.4,12.4
				C149.9,408.1,153.7,397.8,144.4,389.3"/>
			<path class="st77" d="M146,387.5c-3.3-3-7.8-5.4-12.1-4.4c-3.8,0.9-8.2,5.4-5.9,13c4.8,15.6,16.2,14.1,19.4,12.4
				C151.5,406.4,155.3,396,146,387.5"/>
			<path class="st76" d="M142.3,400.8l0.4,1.3l-1,0.3l-0.4-1.3c-1.6,0.4-3.1-0.1-4.1-1.3l1.5-1.8c0.5,0.6,1.1,0.9,1.7,0.8l-0.7-2
				c-0.1,0-0.1,0-0.2,0c-1.4-0.1-3.1-0.3-3.8-2.3c-0.6-1.9,0.4-3.4,1.9-4l-0.4-1.3l1-0.3l0.4,1.3c1.3-0.2,2.5,0.1,3.5,1.2l-1.5,1.8
				c-0.4-0.5-0.7-0.7-1.2-0.7l0.7,2c1.4,0.1,3.2,0.1,3.9,2.2C144.8,398.6,143.9,400.1,142.3,400.8 M139.1,394.3l-0.5-1.5
				c-0.4,0.2-0.5,0.6-0.4,0.9C138.3,394,138.5,394.2,139.1,394.3 M141.9,397.5c-0.1-0.4-0.4-0.5-0.9-0.6l0.5,1.6
				C142,398.2,142,397.8,141.9,397.5"/>
			<path class="st78" d="M142.6,400l0.4,1.3l-1,0.3l-0.4-1.3c-1.7,0.4-3.2,0-4.1-1.2l1.6-1.8c0.5,0.6,1.1,0.9,1.8,0.8l-0.7-2
				c-0.1,0-0.1,0-0.2,0c-1.4-0.1-3.2-0.3-3.8-2.2c-0.6-1.9,0.5-3.3,2-4l-0.4-1.3l1-0.3l0.4,1.3c1.3-0.3,2.6,0.1,3.5,1.2l-1.6,1.8
				c-0.4-0.4-0.7-0.6-1.2-0.6l0.6,2c1.4,0.1,3.3,0,4,2.1C145.1,397.7,144.3,399.2,142.6,400 M139.4,393.6l-0.5-1.5
				c-0.4,0.2-0.5,0.6-0.4,0.9C138.6,393.3,138.8,393.5,139.4,393.6 M142.2,396.7c-0.1-0.4-0.4-0.5-0.9-0.6l0.5,1.5
				C142.3,397.4,142.3,397,142.2,396.7"/>
			<path class="st78" d="M146.8,405.5c0,0,0.1-0.1,0.2-0.3c0,0,0.1-0.1,0.1-0.1c0,0,0.1-0.1,0.1-0.2c0.1-0.1,0.1-0.1,0.2-0.2
				c0,0,0.1-0.1,0.1-0.1c0,0,0.1-0.1,0.1-0.1c0.1-0.1,0.1-0.2,0.2-0.3c0.1-0.1,0.1-0.2,0.2-0.3c0.2-0.2,0.3-0.5,0.4-0.7
				c0.3-0.5,0.5-1.2,0.7-1.9c0.4-1.5,0.5-3.3-0.1-5.3c0-0.1,0-0.1,0-0.2c0-0.1,0-0.1-0.1-0.2c0-0.1-0.1-0.2-0.1-0.4
				c0-0.1-0.1-0.2-0.1-0.4c0-0.1,0-0.1-0.1-0.2l-0.1-0.2c-0.2-0.5-0.4-1-0.7-1.4c-0.3-0.5-0.6-0.9-0.9-1.4c-0.3-0.5-0.7-0.9-1.1-1.4
				c-0.8-0.9-1.6-1.7-2.5-2.4c-0.4-0.4-0.9-0.7-1.3-1c-0.4-0.3-0.9-0.5-1.3-0.8c-0.4-0.2-0.9-0.4-1.3-0.5c-0.2-0.1-0.4-0.1-0.7-0.2
				c-0.1,0-0.2,0-0.3-0.1c-0.1,0-0.1,0-0.2,0c-0.1,0-0.1,0-0.2,0c-0.4-0.1-0.9-0.1-1.3-0.1c-0.2,0-0.4,0-0.6,0c-0.1,0-0.2,0-0.3,0
				c-0.1,0-0.2,0-0.3,0.1c-0.7,0.1-1.4,0.4-1.9,0.7c-0.5,0.3-1,0.6-1.3,0.9c-0.1,0.1-0.2,0.1-0.2,0.2c-0.1,0.1-0.1,0.1-0.2,0.2
				c-0.1,0.1-0.1,0.1-0.2,0.2c-0.1,0-0.1,0.1-0.1,0.1c-0.2,0.2-0.3,0.3-0.3,0.2c0,0,0-0.1,0.1-0.4c0-0.1,0.1-0.1,0.1-0.2
				c0-0.1,0.1-0.1,0.1-0.2c0.1-0.1,0.1-0.2,0.2-0.2c0.1-0.1,0.1-0.2,0.2-0.2c0.3-0.3,0.7-0.7,1.3-1.1c0.6-0.4,1.2-0.7,2-0.9
				c0.1,0,0.2-0.1,0.3-0.1c0.1,0,0.2,0,0.3-0.1c0.2,0,0.4-0.1,0.7-0.1c0.5,0,0.9,0,1.4,0c0.1,0,0.1,0,0.2,0c0.1,0,0.1,0,0.2,0
				c0.1,0,0.2,0,0.4,0.1c0.2,0.1,0.5,0.1,0.7,0.2c0.5,0.1,1,0.3,1.5,0.6c0.5,0.2,1,0.5,1.5,0.8c0.5,0.3,0.9,0.6,1.4,1
				c0.9,0.7,1.8,1.6,2.6,2.5c0.4,0.5,0.8,0.9,1.1,1.4c0.3,0.5,0.7,1,0.9,1.5c0.3,0.5,0.5,1,0.7,1.6c0,0.1,0.1,0.1,0.1,0.2
				c0,0.1,0,0.1,0.1,0.2c0,0.1,0.1,0.3,0.1,0.4c0,0.1,0.1,0.3,0.1,0.4c0,0.1,0,0.1,0.1,0.2c0,0.1,0,0.1,0,0.2c0,0.1,0.1,0.3,0.1,0.4
				c0,0.1,0,0.3,0.1,0.4c0.1,0.3,0.1,0.5,0.1,0.8c0,0.1,0,0.3,0,0.4c0,0.1,0,0.3,0,0.4v0.4c0,0.1,0,0.2,0,0.4c0,1-0.2,1.9-0.5,2.6
				c-0.3,0.8-0.6,1.4-0.9,2c-0.2,0.3-0.3,0.5-0.5,0.7c-0.1,0.1-0.2,0.2-0.3,0.3c-0.1,0.1-0.2,0.2-0.3,0.3l-0.1,0.1
				c0,0-0.1,0.1-0.1,0.1c-0.1,0.1-0.2,0.1-0.2,0.2c-0.1,0.1-0.1,0.1-0.2,0.1c-0.1,0-0.1,0.1-0.2,0.1
				C146.9,405.5,146.8,405.5,146.8,405.5"/>
			<path class="st76" d="M145.4,406.1c0,0-0.1,0.1-0.2,0.2c-0.1,0-0.2,0.1-0.3,0.1c-0.1,0-0.2,0.1-0.4,0.2c-0.1,0.1-0.3,0.1-0.5,0.2
				c-0.2,0.1-0.4,0.1-0.6,0.1c-0.4,0.1-0.9,0.1-1.5,0.2c-1.1,0-2.4-0.2-3.8-0.7c-0.7-0.3-1.4-0.6-2-1.1c-0.6-0.5-1.3-1-1.8-1.6
				c-1.1-1.2-2-2.6-2.6-3.9c-0.6-1.3-1-2.5-1.2-3.6c-0.2-1-0.4-1.9-0.4-2.5c0-0.6,0-0.9,0-0.9c0.1,0,0.2,0.3,0.4,0.9
				c0.2,0.6,0.4,1.4,0.7,2.4c0.3,1,0.8,2.1,1.4,3.4c0.6,1.2,1.4,2.5,2.5,3.6c0.5,0.6,1.1,1.1,1.7,1.5s1.2,0.8,1.8,1.1
				c1.2,0.6,2.4,0.8,3.4,0.9c0.5,0,1,0,1.4,0c0.2,0,0.4,0,0.6-0.1c0.2,0,0.3,0,0.5-0.1c0.1,0,0.3,0,0.4-0.1c0.1,0,0.2,0,0.3-0.1
				C145.3,406.1,145.4,406.1,145.4,406.1"/>
			<path class="st79" d="M147.4,388.7c0,0-0.1,0-0.2-0.1c0-0.1-0.1-0.1-0.2-0.2c0,0-0.1-0.1-0.1-0.1c0,0-0.1-0.1-0.1-0.1
				c-0.1-0.1-0.2-0.2-0.3-0.3c-0.1-0.1-0.2-0.2-0.4-0.4c-0.1-0.1-0.3-0.3-0.4-0.4c-0.2-0.1-0.3-0.3-0.5-0.4
				c-0.4-0.3-0.8-0.6-1.2-0.9c-0.5-0.3-1-0.6-1.5-0.9c-0.3-0.1-0.6-0.3-0.9-0.4c-0.1-0.1-0.3-0.1-0.5-0.2c-0.1,0-0.2-0.1-0.2-0.1
				c-0.1,0-0.2-0.1-0.2-0.1c-0.2-0.1-0.3-0.1-0.5-0.2c-0.2-0.1-0.3-0.1-0.5-0.2c-0.3-0.1-0.7-0.2-1-0.3c-0.7-0.1-1.4-0.2-2-0.2
				c-0.7,0-1.3,0.1-1.9,0.2c-0.1,0-0.3,0.1-0.4,0.1c-0.1,0-0.1,0-0.2,0c-0.1,0-0.1,0-0.2,0.1c-0.1,0-0.3,0.1-0.4,0.1
				c-0.1,0-0.3,0.1-0.4,0.1c-0.1,0-0.1,0-0.2,0.1c-0.1,0-0.1,0.1-0.2,0.1c-0.1,0.1-0.2,0.1-0.4,0.2c-0.1,0.1-0.2,0.1-0.3,0.2
				c-0.1,0.1-0.2,0.1-0.3,0.2c-0.1,0.1-0.2,0.1-0.3,0.2c0,0-0.1,0.1-0.1,0.1c0,0-0.1,0.1-0.1,0.1c-0.1,0.1-0.2,0.1-0.2,0.2
				c-0.1,0.1-0.2,0.1-0.2,0.2c-0.1,0.1-0.3,0.2-0.4,0.3c-0.1,0.1-0.2,0.2-0.3,0.3c0,0-0.1,0.1-0.1,0.1c0,0-0.1,0.1-0.1,0.1
				c-0.1,0.1-0.1,0.1-0.2,0.2c-0.1,0.1-0.2,0.1-0.2,0.1c0,0,0-0.1,0.1-0.2c0-0.1,0.1-0.1,0.1-0.2c0,0,0.1-0.1,0.1-0.1
				c0,0,0.1-0.1,0.1-0.1c0.1-0.1,0.2-0.2,0.3-0.3c0.1-0.1,0.2-0.2,0.4-0.4c0.1-0.1,0.1-0.1,0.2-0.2c0.1-0.1,0.2-0.1,0.2-0.2
				c0,0,0.1-0.1,0.1-0.1c0,0,0.1-0.1,0.1-0.1c0.1-0.1,0.2-0.1,0.3-0.2c0.1-0.1,0.2-0.1,0.3-0.2c0.1-0.1,0.2-0.1,0.3-0.2
				c0.1-0.1,0.2-0.1,0.4-0.2c0.1,0,0.1-0.1,0.2-0.1c0.1,0,0.1-0.1,0.2-0.1c0.1-0.1,0.3-0.1,0.4-0.2c0.1-0.1,0.3-0.1,0.4-0.1
				c0.1,0,0.1,0,0.2-0.1c0.1,0,0.2,0,0.2-0.1c0.2,0,0.3-0.1,0.5-0.1c0.6-0.1,1.3-0.2,2-0.2c0.7,0,1.4,0.1,2.2,0.2
				c0.4,0.1,0.7,0.2,1.1,0.3c0.2,0.1,0.3,0.1,0.5,0.2c0.2,0.1,0.3,0.1,0.5,0.2c0.1,0,0.2,0.1,0.2,0.1c0.1,0,0.2,0.1,0.2,0.1
				c0.2,0.1,0.3,0.1,0.5,0.2c0.3,0.1,0.6,0.3,0.9,0.4c0.6,0.3,1.1,0.6,1.6,0.9c0.5,0.3,0.9,0.6,1.2,1c0.2,0.2,0.4,0.3,0.5,0.5
				c0.2,0.2,0.3,0.3,0.4,0.4c0.1,0.1,0.2,0.3,0.3,0.4c0.1,0.1,0.2,0.3,0.3,0.4c0,0.1,0.1,0.1,0.1,0.2c0,0.1,0.1,0.1,0.1,0.1
				c0.1,0.1,0.1,0.2,0.1,0.2C147.4,388.6,147.5,388.7,147.4,388.7"/>
			<path class="st79" d="M142.3,390.5c-0.1,0.1-0.7-0.3-1.6-0.6c-0.9-0.3-1.6-0.3-1.6-0.5c0-0.1,0.2-0.1,0.5-0.2c0.2,0,0.4,0,0.6,0
				c0.2,0,0.5,0.1,0.7,0.2c0.2,0.1,0.5,0.2,0.6,0.3c0.2,0.1,0.4,0.2,0.5,0.3C142.2,390.3,142.3,390.5,142.3,390.5"/>
			<path class="st79" d="M139.1,389.6c-0.1,0.1-0.2,0-0.3-0.1c-0.1-0.1-0.3-0.3-0.3-0.5c-0.1-0.2-0.1-0.4,0-0.6
				c0.1-0.2,0.2-0.2,0.3-0.2c0.1,0,0.2,0.1,0.3,0.2c0.1,0.1,0.1,0.3,0.2,0.4c0,0.2,0.1,0.3,0.1,0.5
				C139.2,389.5,139.2,389.6,139.1,389.6"/>
			<path class="st79" d="M144,395.3c0,0-0.1-0.1-0.2-0.2c-0.1-0.1-0.2-0.3-0.4-0.4c-0.2-0.1-0.5-0.3-0.8-0.4
				c-0.3-0.1-0.7-0.2-1.1-0.3c-0.8-0.2-1.5-0.3-2-0.4c-0.5-0.1-0.9-0.2-0.9-0.2c0-0.1,0.3-0.1,0.9-0.1c0.5,0,1.3,0,2.1,0.2
				c0.4,0.1,0.8,0.2,1.1,0.4c0.3,0.2,0.6,0.4,0.8,0.6c0.2,0.2,0.3,0.4,0.3,0.6C144.1,395.2,144.1,395.3,144,395.3"/>
		</g>
	</g>
</g>
</svg>
